<svg xmlns="http://www.w3.org/2000/svg" viewBox="0 0 358.28 273.43"><defs><style>.cls-1{fill:#007b94;}.cls-2{fill:#292f36;}.cls-3{fill:#424c5a;}.cls-4{fill:#939598;}.cls-5{fill:#d1d3d4;}.cls-6{fill:#bcbec0;}.cls-7{fill:#f1f2f2;}.cls-8{fill:#fff;opacity:0.03;}.cls-9{fill:#beffff;}.cls-10{fill:#3affff;}.cls-11{fill:#005898;}.cls-12{fill:#129dff;}</style></defs><title>concurrente</title><g id="OBJECTS"><ellipse class="cls-1" cx="179.14" cy="244.77" rx="179.14" ry="28.66"/><path id="_Trazado_" data-name="&lt;Trazado&gt;" class="cls-2" d="M353.68,280.88l-207.22-.16a2.74,2.74,0,0,1-2.74-2.74l.1-132.86a8.39,8.39,0,0,1,8.39-8.37l195.94.15a8.39,8.39,0,0,1,8.37,8.39l-.1,132.86a2.74,2.74,0,0,1-2.74,2.73" transform="translate(-70.86 -63.28)"/><polyline id="_Trazado_2" data-name="&lt;Trazado&gt;" class="cls-3" points="277.57 210.08 80.86 209.93 80.96 80.98 277.67 81.13 277.57 210.08"/><path id="_Trazado_3" data-name="&lt;Trazado&gt;" class="cls-4" d="M401,327.76l-301.71-.24a6.58,6.58,0,0,1-6.58-6.6v-.24l314.89.25v.24A6.6,6.6,0,0,1,401,327.76Z" transform="translate(-70.86 -63.28)"/><path id="_Trazado_4" data-name="&lt;Trazado&gt;" class="cls-5" d="M400.31,322.69l-300.37-.24c-5.45,0-8.48-1.1-6.76-2.44L141,282.62c1.72-1.35,6.06-2.44,9.68-2.43l199.77.15c3.63,0,7.95,1.1,9.64,2.45l47.06,37.46C408.81,321.6,405.76,322.69,400.31,322.69Z" transform="translate(-70.86 -63.28)"/><polygon id="_Trazado_5" data-name="&lt;Trazado&gt;" class="cls-6" points="236.97 256.55 121.58 256.46 129.38 241.49 229.5 241.57 236.97 256.55"/><path id="_Trazado_6" data-name="&lt;Trazado&gt;" class="cls-4" d="M163.5,285.65h-9.21c-.54,0-.82-.15-.61-.34l3.52-3.21a2.36,2.36,0,0,1,1.31-.34h8.82c.52,0,.79.15.6.34l-3.12,3.21A2.22,2.22,0,0,1,163.5,285.65Z" transform="translate(-70.86 -63.28)"/><path id="_Trazado_7" data-name="&lt;Trazado&gt;" class="cls-4" d="M176.56,285.66h-9.22c-.54,0-.83-.15-.65-.34l3.05-3.21a2.09,2.09,0,0,1,1.26-.34h8.81c.52,0,.82.16.66.35l-2.65,3.21A2,2,0,0,1,176.56,285.66Z" transform="translate(-70.86 -63.28)"/><path id="_Trazado_8" data-name="&lt;Trazado&gt;" class="cls-4" d="M189.61,285.67H180.4c-.54,0-.86-.15-.71-.34l2.59-3.21a1.86,1.86,0,0,1,1.21-.34h8.81c.52,0,.83.16.71.35l-2.19,3.21A1.76,1.76,0,0,1,189.61,285.67Z" transform="translate(-70.86 -63.28)"/><path id="_Trazado_9" data-name="&lt;Trazado&gt;" class="cls-4" d="M202.67,285.68h-9.22c-.54,0-.88-.15-.75-.34l2.11-3.21a1.68,1.68,0,0,1,1.16-.34h8.82c.52,0,.85.16.75.35l-1.71,3.21C203.73,285.53,203.21,285.68,202.67,285.68Z" transform="translate(-70.86 -63.28)"/><path id="_Trazado_10" data-name="&lt;Trazado&gt;" class="cls-4" d="M215.72,285.69h-9.21c-.54,0-.9-.15-.81-.34l1.65-3.21c.1-.19.59-.34,1.11-.34h8.81c.52,0,.88.16.81.35l-1.24,3.21C216.76,285.54,216.26,285.69,215.72,285.69Z" transform="translate(-70.86 -63.28)"/><path id="_Trazado_11" data-name="&lt;Trazado&gt;" class="cls-4" d="M228.83,285.7h-9.21c-.54,0-.93-.15-.86-.34l1.18-3.21c.07-.19.54-.34,1.06-.34h8.81c.52,0,.9.16.86.35l-.78,3.21C229.85,285.55,229.37,285.7,228.83,285.7Z" transform="translate(-70.86 -63.28)"/><path id="_Trazado_12" data-name="&lt;Trazado&gt;" class="cls-4" d="M241.89,285.71h-9.22c-.54,0-.94-.15-.9-.34l.7-3.21c.05-.19.5-.34,1-.34h8.81c.52,0,.92.16.9.35l-.3,3.21C242.88,285.56,242.43,285.71,241.89,285.71Z" transform="translate(-70.86 -63.28)"/><path id="_Trazado_13" data-name="&lt;Trazado&gt;" class="cls-4" d="M254.94,285.72h-9.21c-.54,0-1-.15-1-.34l.24-3.21c0-.19.45-.34,1-.34h8.82c.51,0,.94.16,1,.35l.17,3.21C255.91,285.57,255.48,285.72,254.94,285.72Z" transform="translate(-70.86 -63.28)"/><path id="_Trazado_14" data-name="&lt;Trazado&gt;" class="cls-4" d="M268,285.73h-9.22c-.54,0-1-.15-1-.34l-.23-3.21c0-.19.39-.34.91-.34h8.81c.52,0,1,.16,1,.35l.63,3.21C269,285.58,268.54,285.73,268,285.73Z" transform="translate(-70.86 -63.28)"/><path id="_Trazado_15" data-name="&lt;Trazado&gt;" class="cls-4" d="M281.05,285.74h-9.21c-.54,0-1-.15-1.06-.34l-.7-3.21c0-.19.35-.34.87-.34h8.81c.52,0,1,.16,1.05.35l1.11,3.21C282,285.59,281.59,285.74,281.05,285.74Z" transform="translate(-70.86 -63.28)"/><path id="_Trazado_16" data-name="&lt;Trazado&gt;" class="cls-4" d="M294.74,285.75h-9.22c-.54,0-1-.15-1.11-.34l-1.19-3.21c-.07-.19.3-.34.81-.34h8.82c.51,0,1,.16,1.1.35l1.6,3.21C295.64,285.6,295.28,285.75,294.74,285.75Z" transform="translate(-70.86 -63.28)"/><path id="_Trazado_17" data-name="&lt;Trazado&gt;" class="cls-4" d="M307.79,285.76h-9.21c-.55,0-1.06-.15-1.16-.34l-1.66-3.21c-.1-.19.24-.34.76-.34h8.81a1.64,1.64,0,0,1,1.16.35l2.06,3.21C308.67,285.61,308.33,285.76,307.79,285.76Z" transform="translate(-70.86 -63.28)"/><path id="_Trazado_18" data-name="&lt;Trazado&gt;" class="cls-4" d="M320.85,285.77h-9.22a1.78,1.78,0,0,1-1.21-.34l-2.12-3.21c-.13-.19.19-.34.71-.34h8.81a1.85,1.85,0,0,1,1.21.35l2.53,3.21C321.71,285.62,321.39,285.77,320.85,285.77Z" transform="translate(-70.86 -63.28)"/><path id="_Trazado_19" data-name="&lt;Trazado&gt;" class="cls-4" d="M333.9,285.78h-9.21a2,2,0,0,1-1.26-.34l-2.6-3.21c-.15-.19.15-.34.66-.34h8.82a2,2,0,0,1,1.25.35l3,3.21C334.74,285.63,334.44,285.78,333.9,285.78Z" transform="translate(-70.86 -63.28)"/><path id="_Trazado_20" data-name="&lt;Trazado&gt;" class="cls-4" d="M347,285.79h-9.22a2.18,2.18,0,0,1-1.3-.34l-3.07-3.21c-.18-.19.09-.34.61-.34h8.81a2.31,2.31,0,0,1,1.31.35l3.47,3.21C347.77,285.64,347.5,285.79,347,285.79Z" transform="translate(-70.86 -63.28)"/><path id="_Trazado_21" data-name="&lt;Trazado&gt;" class="cls-4" d="M164.84,290.11l-15.39,0c-.57,0-.86-.15-.65-.34l3.52-3.21a2.43,2.43,0,0,1,1.36-.34h14.75c.54,0,.85.16.67.35l-2.92,3.21A2.31,2.31,0,0,1,164.84,290.11Z" transform="translate(-70.86 -63.28)"/><path id="_Trazado_22" data-name="&lt;Trazado&gt;" class="cls-4" d="M178.41,290.12h-9.67c-.57,0-.89-.15-.72-.34l2.86-3.21a2.08,2.08,0,0,1,1.29-.34h9.27c.54,0,.87.16.72.35l-2.46,3.21A2.06,2.06,0,0,1,178.41,290.12Z" transform="translate(-70.86 -63.28)"/><path id="_Trazado_23" data-name="&lt;Trazado&gt;" class="cls-4" d="M192.12,290.13h-9.67c-.57,0-.92-.15-.78-.34l2.39-3.21a1.89,1.89,0,0,1,1.24-.34h9.28c.54,0,.89.16.77.35l-2,3.21A1.79,1.79,0,0,1,192.12,290.13Z" transform="translate(-70.86 -63.28)"/><path id="_Trazado_24" data-name="&lt;Trazado&gt;" class="cls-4" d="M205.83,290.14h-9.68c-.57,0-.94-.15-.82-.34l1.92-3.21a1.68,1.68,0,0,1,1.19-.34h9.27c.55,0,.92.16.83.35L207,289.8C206.93,290,206.39,290.14,205.83,290.14Z" transform="translate(-70.86 -63.28)"/><path id="_Trazado_25" data-name="&lt;Trazado&gt;" class="cls-4" d="M219.59,290.15h-9.68c-.56,0-1-.15-.87-.34l1.45-3.21c.09-.19.6-.34,1.14-.34h9.28c.54,0,.93.16.87.35l-1.05,3.21C220.67,290,220.16,290.15,219.59,290.15Z" transform="translate(-70.86 -63.28)"/><path id="_Trazado_26" data-name="&lt;Trazado&gt;" class="cls-4" d="M233.29,290.16h-9.67c-.57,0-1-.15-.92-.34l1-3.21c.06-.19.55-.34,1.09-.34H234c.55,0,1,.16.93.35l-.59,3.21C234.35,290,233.86,290.16,233.29,290.16Z" transform="translate(-70.86 -63.28)"/><path id="_Trazado_27" data-name="&lt;Trazado&gt;" class="cls-4" d="M247,290.17h-9.67c-.57,0-1-.15-1-.34l.52-3.21c0-.19.49-.34,1-.34h9.27c.54,0,1,.15,1,.34l-.11,3.21C248,290,247.57,290.17,247,290.17Z" transform="translate(-70.86 -63.28)"/><path id="_Trazado_28" data-name="&lt;Trazado&gt;" class="cls-4" d="M260.7,290.18H251c-.57,0-1-.15-1-.34l0-3.21c0-.19.45-.34,1-.34h9.28c.54,0,1,.15,1,.34l.36,3.21C261.72,290,261.27,290.18,260.7,290.18Z" transform="translate(-70.86 -63.28)"/><path id="_Trazado_29" data-name="&lt;Trazado&gt;" class="cls-4" d="M274.41,290.19h-9.67c-.57,0-1.05-.15-1.08-.34l-.42-3.21c0-.19.4-.34.94-.34h9.27c.55,0,1,.15,1.08.34l.82,3.21C275.4,290,275,290.19,274.41,290.19Z" transform="translate(-70.86 -63.28)"/><path id="_Trazado_30" data-name="&lt;Trazado&gt;" class="cls-4" d="M288.77,290.2H279.1c-.57,0-1.07-.16-1.13-.35l-.91-3.21c-.05-.19.35-.34.89-.34h9.27c.55,0,1,.15,1.13.34l1.31,3.21C289.74,290.05,289.34,290.2,288.77,290.2Z" transform="translate(-70.86 -63.28)"/><path id="_Trazado_31" data-name="&lt;Trazado&gt;" class="cls-4" d="M302.48,290.21h-9.67c-.57,0-1.1-.16-1.18-.35l-1.38-3.21c-.08-.19.29-.34.84-.34h9.27a1.65,1.65,0,0,1,1.18.34l1.78,3.21C303.42,290.06,303.05,290.21,302.48,290.21Z" transform="translate(-70.86 -63.28)"/><path id="_Trazado_32" data-name="&lt;Trazado&gt;" class="cls-4" d="M316.19,290.23h-9.68a1.71,1.71,0,0,1-1.22-.35l-1.85-3.21c-.11-.19.24-.34.78-.34h9.28a1.81,1.81,0,0,1,1.22.34l2.26,3.21C317.11,290.07,316.75,290.23,316.19,290.23Z" transform="translate(-70.86 -63.28)"/><path id="_Trazado_33" data-name="&lt;Trazado&gt;" class="cls-4" d="M329.89,290.24h-9.67a2,2,0,0,1-1.28-.34l-2.32-3.22c-.13-.19.2-.34.74-.34h9.27a2,2,0,0,1,1.28.34l2.72,3.21C330.79,290.08,330.46,290.24,329.89,290.24Z" transform="translate(-70.86 -63.28)"/><path id="_Trazado_34" data-name="&lt;Trazado&gt;" class="cls-4" d="M351.72,290.25h-17.8a2.16,2.16,0,0,1-1.32-.34l-2.79-3.22c-.16-.19.14-.34.69-.34h17.06a2.41,2.41,0,0,1,1.35.35l3.47,3.21C352.58,290.1,352.29,290.25,351.72,290.25Z" transform="translate(-70.86 -63.28)"/><path id="_Trazado_35" data-name="&lt;Trazado&gt;" class="cls-4" d="M152.38,303.62l-17.6,0c-.65,0-1-.15-.81-.34l3.53-3.21a2.8,2.8,0,0,1,1.5-.34l17,0c.63,0,1,.15.82.34l-2.92,3.21A2.61,2.61,0,0,1,152.38,303.62Z" transform="translate(-70.86 -63.28)"/><path id="_Trazado_36" data-name="&lt;Trazado&gt;" class="cls-4" d="M167.91,303.63H156.84c-.65,0-1-.15-.87-.34l2.86-3.21a2.46,2.46,0,0,1,1.44-.34h10.67c.62,0,1,.15.87.34l-2.46,3.21A2.35,2.35,0,0,1,167.91,303.63Z" transform="translate(-70.86 -63.28)"/><path id="_Trazado_37" data-name="&lt;Trazado&gt;" class="cls-4" d="M183.59,303.64H172.52c-.65,0-1.06-.15-.92-.34l2.39-3.21a2.24,2.24,0,0,1,1.39-.34h10.67c.62,0,1,.15.92.34l-2,3.21A2.13,2.13,0,0,1,183.59,303.64Z" transform="translate(-70.86 -63.28)"/><path id="_Trazado_38" data-name="&lt;Trazado&gt;" class="cls-4" d="M199.27,303.66H188.2c-.65,0-1.08-.16-1-.35l1.92-3.21a2.08,2.08,0,0,1,1.34-.34h10.67c.62,0,1.06.16,1,.34l-1.52,3.21C200.52,303.5,199.92,303.66,199.27,303.66Z" transform="translate(-70.86 -63.28)"/><path id="_Trazado_39" data-name="&lt;Trazado&gt;" class="cls-4" d="M286.83,303.72l-82.63-.06c-.65,0-1.1-.15-1-.34l1.45-3.21c.08-.19.66-.35,1.28-.34l79.63.06c.63,0,1.19.15,1.25.34l1.1,3.21C288,303.57,287.48,303.72,286.83,303.72Z" transform="translate(-70.86 -63.28)"/><path id="_Trazado_40" data-name="&lt;Trazado&gt;" class="cls-4" d="M302.53,303.74H291.46c-.65,0-1.23-.16-1.3-.34L289,300.17c-.07-.19.38-.34,1-.34h10.66c.63,0,1.21.15,1.3.34l1.57,3.22C303.63,303.58,303.18,303.74,302.53,303.74Z" transform="translate(-70.86 -63.28)"/><path id="_Trazado_41" data-name="&lt;Trazado&gt;" class="cls-4" d="M318.21,303.75H307.14c-.65,0-1.25-.15-1.35-.34l-1.63-3.22c-.1-.18.33-.34,1-.34h10.66a2.1,2.1,0,0,1,1.35.34l2,3.22C319.29,303.6,318.86,303.75,318.21,303.75Z" transform="translate(-70.86 -63.28)"/><path id="_Trazado_42" data-name="&lt;Trazado&gt;" class="cls-4" d="M333.89,303.76H322.82a2.17,2.17,0,0,1-1.4-.34l-2.1-3.21c-.13-.19.28-.35.91-.35h10.66a2.24,2.24,0,0,1,1.4.35l2.51,3.21C334.94,303.61,334.54,303.76,333.89,303.76Z" transform="translate(-70.86 -63.28)"/><path id="_Trazado_43" data-name="&lt;Trazado&gt;" class="cls-4" d="M349.57,303.77H338.5a2.41,2.41,0,0,1-1.45-.34l-2.57-3.21c-.15-.19.23-.34.86-.34H346a2.57,2.57,0,0,1,1.46.34l3,3.21C350.6,303.62,350.22,303.77,349.57,303.77Z" transform="translate(-70.86 -63.28)"/><path id="_Trazado_44" data-name="&lt;Trazado&gt;" class="cls-4" d="M365.29,303.79H354.22a2.66,2.66,0,0,1-1.5-.35l-3-3.21c-.18-.19.18-.34.81-.34h10.67a2.8,2.8,0,0,1,1.5.34l3.44,3.21C366.3,303.63,365.94,303.79,365.29,303.79Z" transform="translate(-70.86 -63.28)"/><path id="_Trazado_45" data-name="&lt;Trazado&gt;" class="cls-4" d="M168.81,294.57l-24.2,0c-.59,0-.91-.16-.7-.34l3.52-3.21a2.59,2.59,0,0,1,1.41-.34h23.24c.57,0,.9.16.75.35l-2.66,3.21A2.31,2.31,0,0,1,168.81,294.57Z" transform="translate(-70.86 -63.28)"/><path id="_Trazado_46" data-name="&lt;Trazado&gt;" class="cls-4" d="M183.28,294.58H173.15c-.6,0-1-.15-.8-.34l2.59-3.21a2.06,2.06,0,0,1,1.31-.34H186c.57,0,.93.16.8.35l-2.19,3.21A2,2,0,0,1,183.28,294.58Z" transform="translate(-70.86 -63.28)"/><path id="_Trazado_47" data-name="&lt;Trazado&gt;" class="cls-4" d="M197.64,294.59H187.51c-.6,0-1-.15-.86-.34l2.12-3.21a1.88,1.88,0,0,1,1.26-.34h9.74c.57,0,.95.15.85.34l-1.72,3.21C198.8,294.44,198.23,294.59,197.64,294.59Z" transform="translate(-70.86 -63.28)"/><path id="_Trazado_48" data-name="&lt;Trazado&gt;" class="cls-4" d="M212.05,294.6H201.92c-.59,0-1-.15-.9-.34l1.65-3.21c.09-.19.64-.34,1.21-.34h9.73c.57,0,1,.15.9.34l-1.25,3.21C213.19,294.45,212.65,294.6,212.05,294.6Z" transform="translate(-70.86 -63.28)"/><path id="_Trazado_49" data-name="&lt;Trazado&gt;" class="cls-4" d="M226.41,294.61H216.28c-.6,0-1-.15-1-.34l1.19-3.21c.06-.19.58-.34,1.16-.34h9.73c.57,0,1,.15.95.34l-.78,3.21C227.52,294.46,227,294.61,226.41,294.61Z" transform="translate(-70.86 -63.28)"/><path id="_Trazado_50" data-name="&lt;Trazado&gt;" class="cls-4" d="M240.77,294.62H230.63c-.59,0-1-.16-1-.35l.71-3.21c0-.19.54-.34,1.11-.34h9.74c.57,0,1,.15,1,.34l-.31,3.21C241.86,294.47,241.36,294.62,240.77,294.62Z" transform="translate(-70.86 -63.28)"/><path id="_Trazado_51" data-name="&lt;Trazado&gt;" class="cls-4" d="M255.12,294.63H245c-.6,0-1.07-.16-1.05-.35l.24-3.21c0-.19.49-.34,1.06-.34H255c.57,0,1,.15,1.06.34l.15,3.21C256.19,294.48,255.72,294.64,255.12,294.63Z" transform="translate(-70.86 -63.28)"/><path id="_Trazado_52" data-name="&lt;Trazado&gt;" class="cls-4" d="M269.48,294.65H259.35c-.6,0-1.09-.16-1.11-.34l-.22-3.22c0-.19.44-.34,1-.34h9.73c.57,0,1.07.15,1.1.34l.63,3.21C270.53,294.49,270.07,294.65,269.48,294.65Z" transform="translate(-70.86 -63.28)"/><path id="_Trazado_53" data-name="&lt;Trazado&gt;" class="cls-4" d="M283.83,294.66H273.7c-.59,0-1.11-.15-1.15-.34l-.69-3.22c0-.18.39-.34,1-.34h9.73c.57,0,1.09.15,1.15.34l1.1,3.22C284.86,294.5,284.43,294.66,283.83,294.66Z" transform="translate(-70.86 -63.28)"/><path id="_Trazado_54" data-name="&lt;Trazado&gt;" class="cls-4" d="M298.19,294.67H288.06c-.6,0-1.13-.15-1.2-.34l-1.17-3.22c-.06-.18.34-.34.92-.34h9.73c.57,0,1.11.16,1.2.34l1.56,3.22C299.19,294.52,298.79,294.67,298.19,294.67Z" transform="translate(-70.86 -63.28)"/><path id="_Trazado_55" data-name="&lt;Trazado&gt;" class="cls-4" d="M312.55,294.68H302.41c-.59,0-1.15-.15-1.25-.34l-1.63-3.21c-.09-.19.29-.35.86-.35h9.73a1.89,1.89,0,0,1,1.26.34l2,3.22C313.53,294.53,313.14,294.68,312.55,294.68Z" transform="translate(-70.86 -63.28)"/><path id="_Trazado_56" data-name="&lt;Trazado&gt;" class="cls-4" d="M326.9,294.69H316.77a2,2,0,0,1-1.3-.34l-2.1-3.21c-.12-.19.24-.35.81-.34h9.73a2,2,0,0,1,1.3.35l2.51,3.21C327.86,294.54,327.5,294.69,326.9,294.69Z" transform="translate(-70.86 -63.28)"/><path id="_Trazado_57" data-name="&lt;Trazado&gt;" class="cls-4" d="M341.26,294.7H331.13a2.16,2.16,0,0,1-1.35-.34l-2.57-3.21c-.15-.19.19-.34.76-.34h9.73a2.26,2.26,0,0,1,1.35.35l3,3.21C342.2,294.55,341.86,294.7,341.26,294.7Z" transform="translate(-70.86 -63.28)"/><path id="_Trazado_58" data-name="&lt;Trazado&gt;" class="cls-4" d="M355.68,294.71H345.54a2.5,2.5,0,0,1-1.4-.35l-3-3.21c-.18-.19.14-.34.71-.34h9.73a2.65,2.65,0,0,1,1.41.35l3.44,3.21C356.59,294.56,356.27,294.71,355.68,294.71Z" transform="translate(-70.86 -63.28)"/><path id="_Trazado_59" data-name="&lt;Trazado&gt;" class="cls-4" d="M173.71,299.12l-34,0c-.62,0-1-.15-.75-.34l3.52-3.21a2.72,2.72,0,0,1,1.46-.34l32.74,0c.6,0,1,.16.83.34l-2.39,3.21A2.19,2.19,0,0,1,173.71,299.12Z" transform="translate(-70.86 -63.28)"/><path id="_Trazado_60" data-name="&lt;Trazado&gt;" class="cls-4" d="M188.71,299.13h-10.6c-.63,0-1-.15-.88-.34l2.32-3.21a2,2,0,0,1,1.33-.34h10.2c.6,0,1,.16.88.35L190,298.79A2,2,0,0,1,188.71,299.13Z" transform="translate(-70.86 -63.28)"/><path id="_Trazado_61" data-name="&lt;Trazado&gt;" class="cls-4" d="M203.79,299.14h-10.6c-.62,0-1-.15-.93-.34l1.85-3.21a1.85,1.85,0,0,1,1.28-.34h10.2c.6,0,1,.16.93.35l-1.45,3.21C205,299,204.41,299.14,203.79,299.14Z" transform="translate(-70.86 -63.28)"/><path id="_Trazado_62" data-name="&lt;Trazado&gt;" class="cls-4" d="M218.81,299.15h-10.6c-.63,0-1.06-.15-1-.34l1.38-3.21c.08-.19.63-.34,1.23-.34H220c.6,0,1,.15,1,.34l-1,3.21C220,299,219.43,299.15,218.81,299.15Z" transform="translate(-70.86 -63.28)"/><path id="_Trazado_63" data-name="&lt;Trazado&gt;" class="cls-4" d="M233.83,299.16h-10.6c-.63,0-1.09-.15-1-.34l.91-3.21c0-.19.58-.34,1.18-.34h10.2c.6,0,1.06.15,1,.34l-.51,3.21C235,299,234.45,299.16,233.83,299.16Z" transform="translate(-70.86 -63.28)"/><path id="_Trazado_64" data-name="&lt;Trazado&gt;" class="cls-4" d="M248.85,299.17h-10.6c-.63,0-1.11-.16-1.08-.35l.44-3.21c0-.19.53-.34,1.13-.34h10.2c.6,0,1.09.15,1.08.34l0,3.21C250,299,249.47,299.17,248.85,299.17Z" transform="translate(-70.86 -63.28)"/><path id="_Trazado_65" data-name="&lt;Trazado&gt;" class="cls-4" d="M263.87,299.19h-10.6c-.63,0-1.13-.16-1.13-.34l0-3.22c0-.19.48-.34,1.08-.34h10.2c.6,0,1.11.15,1.13.34l.43,3.22C265,299,264.49,299.19,263.87,299.19Z" transform="translate(-70.86 -63.28)"/><path id="_Trazado_66" data-name="&lt;Trazado&gt;" class="cls-4" d="M278.89,299.2h-10.6c-.63,0-1.16-.15-1.18-.34l-.5-3.22c0-.18.44-.34,1-.34h10.2c.6,0,1.13.16,1.18.34l.9,3.22C280,299.05,279.51,299.2,278.89,299.2Z" transform="translate(-70.86 -63.28)"/><path id="_Trazado_67" data-name="&lt;Trazado&gt;" class="cls-4" d="M293.91,299.21h-10.6c-.63,0-1.18-.15-1.23-.34l-1-3.21c-.05-.19.39-.35,1-.34h10.2c.59,0,1.15.16,1.23.35l1.36,3.21C295,299.06,294.53,299.21,293.91,299.21Z" transform="translate(-70.86 -63.28)"/><path id="_Trazado_68" data-name="&lt;Trazado&gt;" class="cls-4" d="M308.93,299.22H298.32c-.62,0-1.19-.15-1.28-.34l-1.43-3.21c-.08-.19.34-.34.94-.34h10.2a1.84,1.84,0,0,1,1.28.35l1.83,3.21C310,299.07,309.55,299.22,308.93,299.22Z" transform="translate(-70.86 -63.28)"/><path id="_Trazado_69" data-name="&lt;Trazado&gt;" class="cls-4" d="M324,299.23H313.34a2,2,0,0,1-1.33-.35l-1.89-3.21c-.12-.19.28-.34.88-.34h10.2a2.07,2.07,0,0,1,1.33.34l2.3,3.21C325,299.08,324.57,299.23,324,299.23Z" transform="translate(-70.86 -63.28)"/><path id="_Trazado_70" data-name="&lt;Trazado&gt;" class="cls-4" d="M339,299.25h-10.6a2.19,2.19,0,0,1-1.38-.35l-2.36-3.21c-.14-.19.23-.34.83-.34h10.2a2.29,2.29,0,0,1,1.38.34l2.77,3.21C340,299.09,339.59,299.25,339,299.25Z" transform="translate(-70.86 -63.28)"/><path id="_Trazado_71" data-name="&lt;Trazado&gt;" class="cls-4" d="M360.49,299.26h-17a2.48,2.48,0,0,1-1.43-.34l-2.84-3.22c-.17-.19.18-.34.78-.34h16.4a2.64,2.64,0,0,1,1.45.35l3.45,3.21C361.46,299.11,361.12,299.26,360.49,299.26Z" transform="translate(-70.86 -63.28)"/><path id="_Trazado_72" data-name="&lt;Trazado&gt;" class="cls-7" d="M407.3,320.43c-.81.72-3.37,1.21-7,1.2L99.93,321.4c-3.62,0-6.16-.49-7-1.21-1.22,1.26,1.76,2.26,7,2.26l300.37.24C405.51,322.69,408.51,321.69,407.3,320.43Z" transform="translate(-70.86 -63.28)"/><path class="cls-8" d="M356.52,145.29a8.38,8.38,0,0,0-8.37-8.39l-195.94-.15a8.36,8.36,0,0,0-4.56,1.35L356.42,271.61Z" transform="translate(-70.86 -63.28)"/><path class="cls-9" d="M227.64,232.37a8.86,8.86,0,1,1,8.86-8.86A8.86,8.86,0,0,1,227.64,232.37Zm0-17.32a8.47,8.47,0,1,0,8.47,8.46A8.47,8.47,0,0,0,227.64,215.05Z" transform="translate(-70.86 -63.28)"/><path class="cls-9" d="M227.64,232.56a9,9,0,1,1,9.05-9.05A9.06,9.06,0,0,1,227.64,232.56Zm0-17.32a8.28,8.28,0,1,0,8.28,8.27A8.28,8.28,0,0,0,227.64,215.24Z" transform="translate(-70.86 -63.28)"/><path class="cls-9" d="M255.24,227.75v-8.52l-7.44-.82a20.42,20.42,0,0,0-2.31-5.57l4.68-5.85-6-6-5.86,4.68a20.78,20.78,0,0,0-5.56-2.3l-.83-7.45h-8.51l-.83,7.45a21,21,0,0,0-5.57,2.3L211.14,201l-6,6,4.68,5.85a20.76,20.76,0,0,0-2.32,5.57l-7.43.82v8.52l7.42.82a20.63,20.63,0,0,0,2.32,5.6L205.12,240l6,6,5.82-4.66a20.7,20.7,0,0,0,5.61,2.32l.82,7.41h8.51l.82-7.41a20.63,20.63,0,0,0,5.6-2.32l5.83,4.66,6-6-4.67-5.82a20.63,20.63,0,0,0,2.32-5.6ZM227.64,234a10.52,10.52,0,1,1,10.52-10.52A10.52,10.52,0,0,1,227.64,234Z" transform="translate(-70.86 -63.28)"/><path class="cls-9" d="M366.23,107.63a5.18,5.18,0,1,1,5.17-5.17A5.18,5.18,0,0,1,366.23,107.63Zm0-10.12a4.95,4.95,0,1,0,4.95,4.95A4.95,4.95,0,0,0,366.23,97.51Z" transform="translate(-70.86 -63.28)"/><path class="cls-9" d="M366.23,107.74a5.29,5.29,0,1,1,5.29-5.28A5.29,5.29,0,0,1,366.23,107.74Zm0-10.12a4.84,4.84,0,1,0,4.84,4.84A4.84,4.84,0,0,0,366.23,97.62Z" transform="translate(-70.86 -63.28)"/><path class="cls-9" d="M382.35,104.93v-5L378,99.47a12,12,0,0,0-1.36-3.25l2.74-3.42-3.52-3.51L372.45,92a11.92,11.92,0,0,0-3.25-1.34l-.48-4.36h-5l-.48,4.36A11.92,11.92,0,0,0,360,92l-3.42-2.73-3.52,3.51,2.74,3.42a12.29,12.29,0,0,0-1.36,3.25l-4.34.49v5l4.34.48a12.07,12.07,0,0,0,1.35,3.27l-2.73,3.4,3.52,3.52,3.4-2.72a12.48,12.48,0,0,0,3.28,1.36l.47,4.32h5l.48-4.32a12.56,12.56,0,0,0,3.27-1.36l3.4,2.72,3.52-3.52-2.73-3.4a12.07,12.07,0,0,0,1.35-3.27Zm-16.12,3.67a6.15,6.15,0,1,1,6.14-6.14A6.14,6.14,0,0,1,366.23,108.6Z" transform="translate(-70.86 -63.28)"/><path class="cls-9" d="M107.28,84.59a5.17,5.17,0,1,1,5.17-5.17A5.18,5.18,0,0,1,107.28,84.59Zm0-10.12a4.95,4.95,0,1,0,5,5A5,5,0,0,0,107.28,74.47Z" transform="translate(-70.86 -63.28)"/><path class="cls-9" d="M107.28,84.7a5.29,5.29,0,1,1,5.28-5.28A5.29,5.29,0,0,1,107.28,84.7Zm0-10.12a4.84,4.84,0,1,0,4.83,4.84A4.84,4.84,0,0,0,107.28,74.58Z" transform="translate(-70.86 -63.28)"/><path class="cls-9" d="M123.4,81.89v-5l-4.34-.48a12.35,12.35,0,0,0-1.36-3.26l2.74-3.42-3.52-3.51L113.5,69a12.24,12.24,0,0,0-3.25-1.34l-.48-4.36h-5l-.48,4.36A12.24,12.24,0,0,0,101.06,69l-3.42-2.73-3.52,3.51,2.74,3.42a12.35,12.35,0,0,0-1.36,3.26l-4.34.48v5l4.34.48a11.94,11.94,0,0,0,1.35,3.27L94.12,89l3.52,3.52,3.4-2.72a12.56,12.56,0,0,0,3.27,1.36l.48,4.32h5l.48-4.32a12.56,12.56,0,0,0,3.27-1.36l3.4,2.72L120.44,89l-2.73-3.4a11.94,11.94,0,0,0,1.35-3.27Zm-16.12,3.67a6.14,6.14,0,1,1,6.14-6.14A6.14,6.14,0,0,1,107.28,85.56Z" transform="translate(-70.86 -63.28)"/><path class="cls-10" d="M394.07,147.82a8.66,8.66,0,1,1,8.66-8.65A8.66,8.66,0,0,1,394.07,147.82Zm0-16.94a8.29,8.29,0,1,0,8.28,8.29A8.29,8.29,0,0,0,394.07,130.88Z" transform="translate(-70.86 -63.28)"/><path class="cls-10" d="M394.07,148a8.85,8.85,0,1,1,8.84-8.84A8.86,8.86,0,0,1,394.07,148Zm0-16.94a8.1,8.1,0,1,0,8.09,8.1A8.1,8.1,0,0,0,394.07,131.07Z" transform="translate(-70.86 -63.28)"/><path class="cls-10" d="M421.05,143.31V135l-7.27-.8a20.37,20.37,0,0,0-2.26-5.46l4.57-5.71-5.89-5.89-5.72,4.58a19.9,19.9,0,0,0-5.44-2.25l-.81-7.29H389.9l-.8,7.29a20.09,20.09,0,0,0-5.45,2.25l-5.72-4.58L372,123l4.58,5.71a20.07,20.07,0,0,0-2.27,5.46l-7.27.8v8.33l7.26.8a20.14,20.14,0,0,0,2.27,5.47l-4.57,5.7,5.89,5.89,5.69-4.56a20.33,20.33,0,0,0,5.48,2.27l.8,7.25h8.33l.8-7.25a20.07,20.07,0,0,0,5.48-2.27l5.69,4.56,5.89-5.89-4.56-5.7a20.43,20.43,0,0,0,2.26-5.47Zm-27,6.14a10.29,10.29,0,1,1,10.28-10.28A10.28,10.28,0,0,1,394.07,149.45Z" transform="translate(-70.86 -63.28)"/><path class="cls-11" d="M106.39,190.32a6.84,6.84,0,1,1,6.84-6.83A6.84,6.84,0,0,1,106.39,190.32Zm0-13.37a6.54,6.54,0,1,0,6.54,6.54A6.54,6.54,0,0,0,106.39,177Z" transform="translate(-70.86 -63.28)"/><path class="cls-11" d="M106.39,190.47a7,7,0,1,1,7-7A7,7,0,0,1,106.39,190.47Zm0-13.37a6.39,6.39,0,1,0,6.39,6.39A6.39,6.39,0,0,0,106.39,177.1Z" transform="translate(-70.86 -63.28)"/><path class="cls-11" d="M127.7,186.76v-6.58l-5.74-.63a16.08,16.08,0,0,0-1.79-4.31l3.61-4.51-4.65-4.65-4.52,3.61a16,16,0,0,0-4.3-1.78l-.63-5.75H103.1l-.64,5.75a16.27,16.27,0,0,0-4.3,1.78l-4.51-3.61L89,170.73l3.61,4.51a16.08,16.08,0,0,0-1.79,4.31l-5.74.63v6.58l5.73.63a16,16,0,0,0,1.79,4.32l-3.6,4.5,4.65,4.65,4.49-3.6a15.92,15.92,0,0,0,4.33,1.8l.63,5.72h6.58l.63-5.72a16,16,0,0,0,4.33-1.8l4.49,3.6,4.65-4.65-3.6-4.5a16.28,16.28,0,0,0,1.79-4.32Zm-21.31,4.84a8.12,8.12,0,1,1,8.12-8.11A8.11,8.11,0,0,1,106.39,191.6Z" transform="translate(-70.86 -63.28)"/><path class="cls-10" d="M114.9,226.37a4.86,4.86,0,1,1,4.86-4.86A4.87,4.87,0,0,1,114.9,226.37Zm0-9.5a4.65,4.65,0,1,0,4.64,4.64A4.65,4.65,0,0,0,114.9,216.87Z" transform="translate(-70.86 -63.28)"/><path class="cls-10" d="M114.9,226.48a5,5,0,1,1,5-5A5,5,0,0,1,114.9,226.48Zm0-9.51a4.55,4.55,0,1,0,4.54,4.54A4.54,4.54,0,0,0,114.9,217Z" transform="translate(-70.86 -63.28)"/><path class="cls-10" d="M130,223.84v-4.67l-4.08-.45a11.18,11.18,0,0,0-1.27-3.06l2.57-3.21L124,209.14l-3.21,2.58a10.94,10.94,0,0,0-3-1.27l-.46-4.09h-4.67l-.45,4.09a11,11,0,0,0-3.06,1.27l-3.21-2.58-3.3,3.31,2.57,3.21a10.87,10.87,0,0,0-1.27,3.06l-4.08.45v4.67l4.07.45a10.94,10.94,0,0,0,1.27,3.07l-2.56,3.2,3.3,3.3,3.2-2.55a11.37,11.37,0,0,0,3.07,1.27l.45,4.07h4.67l.45-4.07a11.43,11.43,0,0,0,3.08-1.27l3.19,2.55,3.31-3.3-2.56-3.2a11.56,11.56,0,0,0,1.27-3.07Zm-15.14,3.44a5.77,5.77,0,1,1,5.77-5.76A5.76,5.76,0,0,1,114.9,227.28Z" transform="translate(-70.86 -63.28)"/><path class="cls-12" d="M290,209.18a12.84,12.84,0,1,1,12.84-12.84A12.85,12.85,0,0,1,290,209.18Zm0-25.12a12.28,12.28,0,1,0,12.28,12.28A12.29,12.29,0,0,0,290,184.06Z" transform="translate(-70.86 -63.28)"/><path class="cls-12" d="M290,209.46a13.12,13.12,0,1,1,13.12-13.12A13.13,13.13,0,0,1,290,209.46Zm0-25.12a12,12,0,1,0,12,12A12,12,0,0,0,290,184.34Z" transform="translate(-70.86 -63.28)"/><path class="cls-12" d="M330,202.49V190.14l-10.78-1.2a29.68,29.68,0,0,0-3.36-8.08l6.79-8.48-8.73-8.73-8.49,6.79a29.89,29.89,0,0,0-8.07-3.34l-1.2-10.81H283.77l-1.19,10.81a30,30,0,0,0-8.08,3.34L266,163.65l-8.73,8.73,6.79,8.48a30,30,0,0,0-3.36,8.08l-10.78,1.2v12.35l10.76,1.19a30.19,30.19,0,0,0,3.36,8.11l-6.77,8.45L266,229l8.45-6.75a30.15,30.15,0,0,0,8.12,3.37l1.19,10.74h12.35l1.19-10.74a30.35,30.35,0,0,0,8.13-3.37l8.44,6.75,8.73-8.73-6.77-8.45a30.19,30.19,0,0,0,3.36-8.11Zm-40,9.1a15.25,15.25,0,1,1,15.24-15.25A15.25,15.25,0,0,1,290,211.59Z" transform="translate(-70.86 -63.28)"/><path class="cls-10" d="M210.34,160.57a17.2,17.2,0,1,1,17.19-17.2A17.22,17.22,0,0,1,210.34,160.57Zm0-33.64a16.45,16.45,0,1,0,16.45,16.44A16.46,16.46,0,0,0,210.34,126.93Z" transform="translate(-70.86 -63.28)"/><path class="cls-10" d="M210.34,160.94a17.57,17.57,0,1,1,17.57-17.57A17.59,17.59,0,0,1,210.34,160.94Zm0-33.64a16.07,16.07,0,1,0,16.07,16.07A16.09,16.09,0,0,0,210.34,127.3Z" transform="translate(-70.86 -63.28)"/><path class="cls-10" d="M263.93,151.6V135.06l-14.44-1.6a39.93,39.93,0,0,0-4.5-10.83l9.09-11.35L242.39,99.59,231,108.68a40.23,40.23,0,0,0-10.81-4.47l-1.6-14.48H202.07l-1.6,14.48a40.43,40.43,0,0,0-10.82,4.47l-11.36-9.09-11.7,11.69,9.09,11.35a40.57,40.57,0,0,0-4.5,10.83l-14.44,1.6V151.6l14.42,1.6a40.12,40.12,0,0,0,4.5,10.86l-9.07,11.32,11.7,11.7L189.6,178a40.16,40.16,0,0,0,10.88,4.52l1.59,14.39h16.54l1.59-14.39A40.16,40.16,0,0,0,231.08,178l11.31,9.06,11.69-11.7L245,164.06a40.12,40.12,0,0,0,4.5-10.86Zm-53.59,12.19a20.42,20.42,0,1,1,20.42-20.42A20.42,20.42,0,0,1,210.34,163.79Z" transform="translate(-70.86 -63.28)"/></g></svg>