<svg xmlns="http://www.w3.org/2000/svg" xmlns:xlink="http://www.w3.org/1999/xlink" viewBox="0 0 417 303.75"><defs><style>.cls-1,.cls-4,.cls-5,.cls-8{fill:#fff;}.cls-1,.cls-16,.cls-2,.cls-9{stroke:#263238;stroke-linecap:round;stroke-linejoin:round;}.cls-2,.cls-6{fill:#263238;}.cls-16,.cls-3{fill:#c6ff00;}.cls-4{opacity:0.7;}.cls-7{clip-path:url(#clip-path);}.cls-8{opacity:0.5;}.cls-9{fill:none;}.cls-10{clip-path:url(#clip-path-2);}.cls-11{clip-path:url(#clip-path-3);}.cls-12{clip-path:url(#clip-path-4);}.cls-13{clip-path:url(#clip-path-5);}.cls-14{opacity:0.2;}.cls-15{clip-path:url(#clip-path-6);}</style><clipPath id="clip-path" transform="translate(-41.5 -48.37)"><path id="_Trazado_de_recorte_" data-name="&lt;Trazado de recorte&gt;" class="cls-1" d="M246.11,210.89s-28.51,6.05-52.27,19.44-42.33,24.19-42.33,29.37S142,347,142,347H358s-21.16-45.36-24.62-64.8-7.34-32-18.57-44.49S270.73,209.16,246.11,210.89Z"/></clipPath><clipPath id="clip-path-2" transform="translate(-41.5 -48.37)"><path id="_Trazado_de_recorte_2" data-name="&lt;Trazado de recorte&gt;" class="cls-1" d="M236.61,213.91a28.44,28.44,0,0,0-13.39,22.46c-.87,15.56,0,31.54-.87,40.18s-6.91,15.55-2.16,15.12S235.74,274,239.63,274s5.19,8.2,6.91,10.8,7.8,3.67,7.8,3.67,5.6-6.7,5.6-8.86-1.73-9.5,3-8.64,15.12,17.28,15.55,12.1-4.75-13-4.75-25.49-6.05-27.21-14.69-36.28S245.46,213.24,236.61,213.91Z"/></clipPath><clipPath id="clip-path-3" transform="translate(-41.5 -48.37)"><path id="_Trazado_de_recorte_3" data-name="&lt;Trazado de recorte&gt;" class="cls-1" d="M240.21,214A66.66,66.66,0,0,0,235,239c0,13.65,7.06,27.78,9.89,34.37s9.42,15.07,9.42,15.07-.47-17.42,3.77-25.9,8-14.6,8-14.6-5.18-5.18-12.71-17S240.21,214,240.21,214Z"/></clipPath><clipPath id="clip-path-4" transform="translate(-41.5 -48.37)"><path id="_Trazado_de_recorte_4" data-name="&lt;Trazado de recorte&gt;" class="cls-1" d="M311.71,180.84s-1.31,19.36-3.4,26.16-5,27.72-11.24,36.88-14.39,17-23.54,17.52S252.08,245.71,245,235.24s-7.85-20.92-10.2-31.12-2.88-22,.78-31.12,22-20.4,37.4-19.1,34.79,9.42,38.71,15.44A10.5,10.5,0,0,1,311.71,180.84Z"/></clipPath><clipPath id="clip-path-5" transform="translate(-41.5 -48.37)"><path id="_Trazado_de_recorte_5" data-name="&lt;Trazado de recorte&gt;" class="cls-2" d="M241.36,142.66s-17,5.49-18.31,12.29,7.32,30.6,7.06,33.48-2.88,5.23,0,9.41,8.11,10.47,10.2,7.07-.78-8.37,2.62-10.47,8.1-5.49,5.49-9.93-1.31-11,4.18-11.77,10.2-4.45,7.33-.27-11.25,14.39-6.8,15.17,22-11,22-11-6,12-2.88,12.81S299.94,174,299.94,174s11.77,15.43,14.13,14.39.78-9.68.78-9.68,1.83,11.51,5.49,12,8.63-5.75,7.06-9.67-4.18-9.42-4.18-9.42,5.23-1.31,7.32-3.66,1.83-2.62-2.61-3.4-7.85-5.76-12-10.2-11-10.46-11-10.46,7.85,3.4,3.66-.53-26.41-12.81-38.44-12.81-16.48,6.27-16.48,6.27,2.09-7.84-.26-6.8-5,7.33-5,7.33-5.49-1.57-8.37.26-3.66,3.66-1.31,3.66a13.66,13.66,0,0,1,3.92.52Z"/></clipPath><clipPath id="clip-path-6" transform="translate(-41.5 -48.37)"><path id="_Trazado_de_recorte_6" data-name="&lt;Trazado de recorte&gt;" class="cls-1" d="M241.36,210.4s-6.28-14.65-11.77-14.65-5.23,12.29-1.83,18.83,10.72,9.16,12.81,5.23"/></clipPath></defs><title>3301603</title><g id="Table"><path class="cls-3" d="M432.94,347.6c2.94-11,12.52-47.91,19-85.31,7.76-44.63,14.55-106.13-16.49-131.92s-71.78,5-93.12-5S320,65.89,262.81,51s-89.24,36.7-114.46,64.47S95,124.42,58.15,154.17c-36.46,29.44-5.54,162.7,21.42,193.43Z" transform="translate(-41.5 -48.37)"/><path class="cls-4" d="M432.94,347.6c2.94-11,12.52-47.91,19-85.31,7.76-44.63,14.55-106.13-16.49-131.92s-71.78,5-93.12-5S320,65.89,262.81,51s-89.24,36.7-114.46,64.47S95,124.42,58.15,154.17c-36.46,29.44-5.54,162.7,21.42,193.43Z" transform="translate(-41.5 -48.37)"/><path class="cls-5" d="M316.35,144.12h-3.23a.79.79,0,0,1-.8-.79.8.8,0,0,1,.8-.8h3.23a.8.8,0,0,1,.8.8A.79.79,0,0,1,316.35,144.12Zm.8,2.9a.79.79,0,0,0-.8-.79h-3.23a.8.8,0,1,0,0,1.59h3.23A.8.8,0,0,0,317.15,147Zm0,3.7a.8.8,0,0,0-.8-.8h-3.23a.8.8,0,0,0,0,1.6h3.23A.8.8,0,0,0,317.15,150.72Zm0,3.7a.8.8,0,0,0-.8-.8h-3.23a.8.8,0,0,0,0,1.6h3.23A.8.8,0,0,0,317.15,154.42Zm0,3.7a.8.8,0,0,0-.8-.8h-3.23a.8.8,0,1,0,0,1.6h3.23A.8.8,0,0,0,317.15,158.12Zm0,3.7a.8.8,0,0,0-.8-.8h-3.23a.8.8,0,0,0,0,1.6h3.23A.8.8,0,0,0,317.15,161.82Zm0,3.7a.8.8,0,0,0-.8-.8h-3.23a.8.8,0,1,0,0,1.6h3.23A.8.8,0,0,0,317.15,165.52Zm0,3.7a.8.8,0,0,0-.8-.8h-3.23a.8.8,0,1,0,0,1.59h3.23A.79.79,0,0,0,317.15,169.22Zm12.11-25.89a.8.8,0,0,0-.8-.8H320a.79.79,0,0,0-.79.8.79.79,0,0,0,.79.79h8.5A.79.79,0,0,0,329.26,143.33Zm0,3.69a.79.79,0,0,0-.8-.79H320a.8.8,0,0,0,0,1.59h8.5A.8.8,0,0,0,329.26,147Zm0,3.7a.8.8,0,0,0-.8-.8H320a.8.8,0,0,0,0,1.6h8.5A.8.8,0,0,0,329.26,150.72Zm0,3.7a.8.8,0,0,0-.8-.8H320a.8.8,0,0,0,0,1.6h8.5A.8.8,0,0,0,329.26,154.42Zm0,3.7a.8.8,0,0,0-.8-.8H320a.8.8,0,0,0,0,1.6h8.5A.8.8,0,0,0,329.26,158.12Zm10.17,3.7a.8.8,0,0,0-.8-.8h-8.5a.8.8,0,0,0,0,1.6h8.5A.8.8,0,0,0,339.43,161.82Zm0,3.7a.8.8,0,0,0-.8-.8h-8.5a.8.8,0,0,0,0,1.6h8.5A.8.8,0,0,0,339.43,165.52Zm0,3.7a.8.8,0,0,0-.8-.8h-8.5a.8.8,0,0,0,0,1.59h8.5A.79.79,0,0,0,339.43,169.22ZM333,143.33a.92.92,0,1,0-.92.92A.93.93,0,0,0,333,143.33Zm2.78,0a.93.93,0,1,0-1.85,0,.93.93,0,0,0,1.85,0Zm2.77,0a.93.93,0,1,0-.92.92A.93.93,0,0,0,338.54,143.33Zm2.78,0a.93.93,0,1,0-1.85,0,.93.93,0,0,0,1.85,0Zm2.77,0a.93.93,0,1,0-.92.92A.93.93,0,0,0,344.09,143.33Zm2.77,0a.93.93,0,1,0-.92.92A.93.93,0,0,0,346.86,143.33ZM333,150.72a.92.92,0,1,0-.92.93A.92.92,0,0,0,333,150.72Zm2.78,0a.93.93,0,1,0-.93.93A.93.93,0,0,0,335.77,150.72Zm2.77,0a.93.93,0,0,0-1.85,0,.93.93,0,1,0,1.85,0Zm2.78,0a.93.93,0,1,0-.93.93A.93.93,0,0,0,341.32,150.72Zm2.77,0a.93.93,0,0,0-1.85,0,.93.93,0,1,0,1.85,0Zm2.77,0a.93.93,0,0,0-1.85,0,.93.93,0,1,0,1.85,0Zm-4.39,10.64a.93.93,0,1,0-.92.92A.93.93,0,0,0,342.47,161.36Zm2.78,0a.93.93,0,1,0-1.85,0,.93.93,0,0,0,1.85,0Zm2.77,0a.93.93,0,1,0-.92.92A.93.93,0,0,0,348,161.36Zm2.77,0a.93.93,0,1,0-.92.92A.93.93,0,0,0,350.79,161.36Zm2.78,0a.93.93,0,1,0-1.85,0,.93.93,0,0,0,1.85,0Zm2.77,0a.93.93,0,1,0-.92.92A.93.93,0,0,0,356.34,161.36ZM342.47,169a.93.93,0,0,0-1.85,0,.93.93,0,1,0,1.85,0Zm2.78,0a.93.93,0,1,0-.93.93A.93.93,0,0,0,345.25,169Zm2.77,0a.93.93,0,0,0-1.85,0,.93.93,0,1,0,1.85,0Zm2.77,0a.93.93,0,0,0-1.85,0,.93.93,0,1,0,1.85,0Zm2.78,0a.93.93,0,1,0-.93.93A.93.93,0,0,0,353.57,169Zm2.77,0a.93.93,0,0,0-1.85,0,.93.93,0,1,0,1.85,0Z" transform="translate(-41.5 -48.37)"/><path class="cls-5" d="M316.35,173.72h-3.23a.8.8,0,0,1,0-1.6h3.23a.8.8,0,1,1,0,1.6Zm.8,2.9a.8.8,0,0,0-.8-.8h-3.23a.8.8,0,1,0,0,1.6h3.23A.8.8,0,0,0,317.15,176.62Zm0,3.7a.8.8,0,0,0-.8-.8h-3.23a.8.8,0,0,0,0,1.6h3.23A.8.8,0,0,0,317.15,180.32Zm0,3.7a.8.8,0,0,0-.8-.8h-3.23a.8.8,0,0,0-.8.8.79.79,0,0,0,.8.79h3.23A.79.79,0,0,0,317.15,184Zm0,3.69a.79.79,0,0,0-.8-.79h-3.23a.8.8,0,1,0,0,1.59h3.23A.8.8,0,0,0,317.15,187.71Zm0,3.7a.79.79,0,0,0-.8-.79h-3.23a.8.8,0,1,0,0,1.59h3.23A.8.8,0,0,0,317.15,191.41Zm0,3.7a.8.8,0,0,0-.8-.8h-3.23a.8.8,0,1,0,0,1.6h3.23A.8.8,0,0,0,317.15,195.11Zm0,3.7a.8.8,0,0,0-.8-.8h-3.23a.8.8,0,0,0,0,1.6h3.23A.8.8,0,0,0,317.15,198.81Zm12.11-25.89a.8.8,0,0,0-.8-.8H320a.8.8,0,0,0,0,1.6h8.5A.8.8,0,0,0,329.26,172.92Zm0,3.7a.8.8,0,0,0-.8-.8H320a.8.8,0,0,0,0,1.6h8.5A.8.8,0,0,0,329.26,176.62Zm0,3.7a.8.8,0,0,0-.8-.8H320a.8.8,0,0,0,0,1.6h8.5A.8.8,0,0,0,329.26,180.32Zm0,3.7a.8.8,0,0,0-.8-.8H320a.79.79,0,0,0-.79.8.79.79,0,0,0,.79.79h8.5A.79.79,0,0,0,329.26,184Zm0,3.69a.79.79,0,0,0-.8-.79H320a.8.8,0,0,0,0,1.59h8.5A.8.8,0,0,0,329.26,187.71Zm10.17,3.7a.79.79,0,0,0-.8-.79h-8.5a.8.8,0,0,0,0,1.59h8.5A.8.8,0,0,0,339.43,191.41Zm0,3.7a.8.8,0,0,0-.8-.8h-8.5a.8.8,0,0,0,0,1.6h8.5A.8.8,0,0,0,339.43,195.11Zm0,3.7a.8.8,0,0,0-.8-.8h-8.5a.8.8,0,0,0,0,1.6h8.5A.8.8,0,0,0,339.43,198.81ZM333,172.92a.92.92,0,1,0-.92.93A.92.92,0,0,0,333,172.92Zm2.78,0a.93.93,0,1,0-.93.93A.93.93,0,0,0,335.77,172.92Zm2.77,0a.93.93,0,0,0-1.85,0,.93.93,0,1,0,1.85,0Zm2.78,0a.93.93,0,1,0-.93.93A.93.93,0,0,0,341.32,172.92Zm2.77,0a.93.93,0,0,0-1.85,0,.93.93,0,1,0,1.85,0Zm2.77,0a.93.93,0,0,0-1.85,0,.93.93,0,1,0,1.85,0ZM333,180.32a.92.92,0,1,0-.92.92A.93.93,0,0,0,333,180.32Zm2.78,0a.93.93,0,1,0-1.85,0,.93.93,0,0,0,1.85,0Zm2.77,0a.93.93,0,1,0-.92.92A.93.93,0,0,0,338.54,180.32Zm2.78,0a.93.93,0,1,0-1.85,0,.93.93,0,0,0,1.85,0Zm2.77,0a.93.93,0,1,0-.92.92A.93.93,0,0,0,344.09,180.32Zm2.77,0a.93.93,0,1,0-.92.92A.93.93,0,0,0,346.86,180.32ZM342.47,191a.93.93,0,0,0-1.85,0,.93.93,0,1,0,1.85,0Zm2.78,0a.93.93,0,1,0-.93.93A.93.93,0,0,0,345.25,191Zm2.77,0a.93.93,0,0,0-1.85,0,.93.93,0,1,0,1.85,0Zm2.77,0a.93.93,0,0,0-1.85,0,.93.93,0,1,0,1.85,0Zm2.78,0a.93.93,0,1,0-.93.93A.93.93,0,0,0,353.57,191Zm2.77,0a.93.93,0,0,0-1.85,0,.93.93,0,1,0,1.85,0Zm-13.87,7.63a.93.93,0,1,0-.92.92A.93.93,0,0,0,342.47,198.58Zm2.78,0a.93.93,0,1,0-1.85,0,.93.93,0,0,0,1.85,0Zm2.77,0a.93.93,0,1,0-.92.92A.93.93,0,0,0,348,198.58Zm2.77,0a.93.93,0,1,0-.92.92A.93.93,0,0,0,350.79,198.58Zm2.78,0a.93.93,0,1,0-1.85,0,.93.93,0,0,0,1.85,0Zm2.77,0a.93.93,0,1,0-.92.92A.93.93,0,0,0,356.34,198.58Z" transform="translate(-41.5 -48.37)"/><path class="cls-5" d="M316.35,204h-3.23a.8.8,0,0,1,0-1.6h3.23a.8.8,0,0,1,0,1.6Zm.8,2.9a.8.8,0,0,0-.8-.8h-3.23a.8.8,0,0,0,0,1.6h3.23A.8.8,0,0,0,317.15,206.93Zm0,3.7a.8.8,0,0,0-.8-.8h-3.23a.8.8,0,0,0,0,1.6h3.23A.8.8,0,0,0,317.15,210.63Zm0,3.7a.8.8,0,0,0-.8-.8h-3.23a.8.8,0,0,0-.8.8.79.79,0,0,0,.8.79h3.23A.79.79,0,0,0,317.15,214.33Zm0,3.69a.79.79,0,0,0-.8-.79h-3.23a.8.8,0,1,0,0,1.59h3.23A.8.8,0,0,0,317.15,218Zm0,3.7a.79.79,0,0,0-.8-.79h-3.23a.79.79,0,0,0-.8.79.8.8,0,0,0,.8.8h3.23A.8.8,0,0,0,317.15,221.72Zm0,3.7a.8.8,0,0,0-.8-.8h-3.23a.8.8,0,0,0,0,1.6h3.23A.8.8,0,0,0,317.15,225.42Zm0,3.7a.8.8,0,0,0-.8-.8h-3.23a.8.8,0,0,0,0,1.6h3.23A.8.8,0,0,0,317.15,229.12Zm12.11-25.89a.8.8,0,0,0-.8-.8H320a.8.8,0,0,0,0,1.6h8.5A.8.8,0,0,0,329.26,203.23Zm0,3.7a.8.8,0,0,0-.8-.8H320a.8.8,0,0,0,0,1.6h8.5A.8.8,0,0,0,329.26,206.93Zm0,3.7a.8.8,0,0,0-.8-.8H320a.8.8,0,0,0,0,1.6h8.5A.8.8,0,0,0,329.26,210.63Zm0,3.7a.8.8,0,0,0-.8-.8H320a.79.79,0,0,0-.79.8.79.79,0,0,0,.79.79h8.5A.79.79,0,0,0,329.26,214.33Zm0,3.69a.79.79,0,0,0-.8-.79H320a.8.8,0,0,0,0,1.59h8.5A.8.8,0,0,0,329.26,218Zm10.17,3.7a.79.79,0,0,0-.8-.79h-8.5a.79.79,0,0,0-.79.79.79.79,0,0,0,.79.8h8.5A.8.8,0,0,0,339.43,221.72Zm0,3.7a.8.8,0,0,0-.8-.8h-8.5a.8.8,0,0,0,0,1.6h8.5A.8.8,0,0,0,339.43,225.42Zm0,3.7a.8.8,0,0,0-.8-.8h-8.5a.8.8,0,0,0,0,1.6h8.5A.8.8,0,0,0,339.43,229.12ZM333,203.23a.92.92,0,1,0-.92.93A.92.92,0,0,0,333,203.23Zm2.78,0a.93.93,0,1,0-.93.93A.93.93,0,0,0,335.77,203.23Zm2.77,0a.93.93,0,0,0-1.85,0,.93.93,0,1,0,1.85,0Zm2.78,0a.93.93,0,1,0-.93.93A.93.93,0,0,0,341.32,203.23Zm2.77,0a.93.93,0,0,0-1.85,0,.93.93,0,1,0,1.85,0Zm2.77,0a.93.93,0,0,0-1.85,0,.93.93,0,1,0,1.85,0ZM333,210.63a.92.92,0,1,0-.92.92A.93.93,0,0,0,333,210.63Zm2.78,0a.93.93,0,1,0-1.85,0,.93.93,0,0,0,1.85,0Zm2.77,0a.93.93,0,1,0-.92.92A.93.93,0,0,0,338.54,210.63Zm2.78,0a.93.93,0,1,0-1.85,0,.93.93,0,0,0,1.85,0Zm2.77,0a.93.93,0,1,0-.92.92A.93.93,0,0,0,344.09,210.63Zm2.77,0a.93.93,0,1,0-.92.92A.93.93,0,0,0,346.86,210.63Zm-4.39,10.63a.93.93,0,0,0-1.85,0,.93.93,0,1,0,1.85,0Zm2.78,0a.93.93,0,1,0-.93.93A.93.93,0,0,0,345.25,221.26Zm2.77,0a.93.93,0,0,0-1.85,0,.93.93,0,1,0,1.85,0Zm2.77,0a.93.93,0,0,0-1.85,0,.93.93,0,1,0,1.85,0Zm2.78,0a.93.93,0,1,0-.93.93A.93.93,0,0,0,353.57,221.26Zm2.77,0a.93.93,0,0,0-1.85,0,.93.93,0,1,0,1.85,0Zm-13.87,7.63a.93.93,0,1,0-.92.92A.93.93,0,0,0,342.47,228.89Zm2.78,0a.93.93,0,1,0-1.85,0,.93.93,0,0,0,1.85,0Zm2.77,0a.93.93,0,1,0-.92.92A.93.93,0,0,0,348,228.89Zm2.77,0a.93.93,0,1,0-.92.92A.93.93,0,0,0,350.79,228.89Zm2.78,0a.93.93,0,1,0-1.85,0,.93.93,0,0,0,1.85,0Zm2.77,0a.93.93,0,1,0-.92.92A.93.93,0,0,0,356.34,228.89Z" transform="translate(-41.5 -48.37)"/><path class="cls-5" d="M366,144.12H362.8a.79.79,0,0,1-.8-.79.8.8,0,0,1,.8-.8H366a.79.79,0,0,1,.79.8A.79.79,0,0,1,366,144.12Zm.79,2.9a.79.79,0,0,0-.79-.79H362.8a.8.8,0,1,0,0,1.59H366A.79.79,0,0,0,366.83,147Zm0,3.7a.79.79,0,0,0-.79-.8H362.8a.8.8,0,1,0,0,1.6H366A.79.79,0,0,0,366.83,150.72Zm0,3.7a.79.79,0,0,0-.79-.8H362.8a.8.8,0,0,0,0,1.6H366A.79.79,0,0,0,366.83,154.42Zm0,3.7a.79.79,0,0,0-.79-.8H362.8a.8.8,0,0,0,0,1.6H366A.79.79,0,0,0,366.83,158.12Zm0,3.7a.79.79,0,0,0-.79-.8H362.8a.8.8,0,0,0,0,1.6H366A.79.79,0,0,0,366.83,161.82Zm0,3.7a.79.79,0,0,0-.79-.8H362.8a.8.8,0,0,0,0,1.6H366A.79.79,0,0,0,366.83,165.52Zm0,3.7a.79.79,0,0,0-.79-.8H362.8a.8.8,0,1,0,0,1.59H366A.79.79,0,0,0,366.83,169.22Zm12.11-25.89a.8.8,0,0,0-.8-.8h-8.49a.8.8,0,0,0-.8.8.79.79,0,0,0,.8.79h8.49A.79.79,0,0,0,378.94,143.33Zm0,3.69a.79.79,0,0,0-.8-.79h-8.49a.8.8,0,1,0,0,1.59h8.49A.8.8,0,0,0,378.94,147Zm0,3.7a.8.8,0,0,0-.8-.8h-8.49a.8.8,0,0,0,0,1.6h8.49A.8.8,0,0,0,378.94,150.72Zm0,3.7a.8.8,0,0,0-.8-.8h-8.49a.8.8,0,0,0,0,1.6h8.49A.8.8,0,0,0,378.94,154.42Zm0,3.7a.8.8,0,0,0-.8-.8h-8.49a.8.8,0,1,0,0,1.6h8.49A.8.8,0,0,0,378.94,158.12Zm10.17,3.7a.8.8,0,0,0-.8-.8h-8.49a.8.8,0,0,0,0,1.6h8.49A.8.8,0,0,0,389.11,161.82Zm0,3.7a.8.8,0,0,0-.8-.8h-8.49a.8.8,0,0,0,0,1.6h8.49A.8.8,0,0,0,389.11,165.52Zm0,3.7a.8.8,0,0,0-.8-.8h-8.49a.8.8,0,1,0,0,1.59h8.49A.79.79,0,0,0,389.11,169.22Zm-6.43-25.89a.93.93,0,1,0-1.85,0,.93.93,0,0,0,1.85,0Zm2.77,0a.93.93,0,1,0-.92.92A.93.93,0,0,0,385.45,143.33Zm2.78,0a.93.93,0,1,0-1.85,0,.93.93,0,0,0,1.85,0Zm2.77,0a.93.93,0,1,0-.92.92A.93.93,0,0,0,391,143.33Zm2.77,0a.92.92,0,1,0-.92.92A.93.93,0,0,0,393.77,143.33Zm2.78,0a.93.93,0,1,0-1.85,0,.93.93,0,0,0,1.85,0Zm-13.87,7.39a.93.93,0,1,0-.93.93A.92.92,0,0,0,382.68,150.72Zm2.77,0a.93.93,0,0,0-1.85,0,.93.93,0,1,0,1.85,0Zm2.78,0a.93.93,0,1,0-.93.93A.93.93,0,0,0,388.23,150.72Zm2.77,0a.93.93,0,0,0-1.85,0,.93.93,0,1,0,1.85,0Zm2.77,0a.92.92,0,1,0-.92.93A.92.92,0,0,0,393.77,150.72Zm2.78,0a.93.93,0,1,0-.93.93A.93.93,0,0,0,396.55,150.72Zm-4.39,10.64a.93.93,0,1,0-1.85,0,.93.93,0,0,0,1.85,0Zm2.77,0a.93.93,0,1,0-.92.92A.93.93,0,0,0,394.93,161.36Zm2.77,0a.92.92,0,1,0-.92.92A.93.93,0,0,0,397.7,161.36Zm2.78,0a.93.93,0,1,0-1.85,0,.93.93,0,0,0,1.85,0Zm2.77,0a.93.93,0,1,0-.92.92A.93.93,0,0,0,403.25,161.36Zm2.78,0a.93.93,0,1,0-1.85,0,.93.93,0,0,0,1.85,0ZM392.16,169a.93.93,0,1,0-.93.93A.93.93,0,0,0,392.16,169Zm2.77,0a.93.93,0,0,0-1.85,0,.93.93,0,1,0,1.85,0Zm2.77,0a.92.92,0,1,0-.92.93A.92.92,0,0,0,397.7,169Zm2.78,0a.93.93,0,1,0-.93.93A.93.93,0,0,0,400.48,169Zm2.77,0a.93.93,0,0,0-1.85,0,.93.93,0,1,0,1.85,0Zm2.78,0a.93.93,0,1,0-.93.93A.93.93,0,0,0,406,169Z" transform="translate(-41.5 -48.37)"/><path class="cls-5" d="M366,174.43H362.8a.8.8,0,1,1,0-1.59H366a.8.8,0,0,1,0,1.59Zm.79,2.9a.79.79,0,0,0-.79-.79H362.8a.8.8,0,1,0,0,1.59H366A.79.79,0,0,0,366.83,177.33Zm0,3.7a.79.79,0,0,0-.79-.8H362.8a.8.8,0,1,0,0,1.6H366A.79.79,0,0,0,366.83,181Zm0,3.7a.79.79,0,0,0-.79-.8H362.8a.8.8,0,0,0,0,1.6H366A.79.79,0,0,0,366.83,184.73Zm0,3.7a.79.79,0,0,0-.79-.8H362.8a.8.8,0,0,0,0,1.6H366A.79.79,0,0,0,366.83,188.43Zm0,3.7a.79.79,0,0,0-.79-.8H362.8a.8.8,0,0,0,0,1.6H366A.79.79,0,0,0,366.83,192.13Zm0,3.7a.79.79,0,0,0-.79-.8H362.8a.8.8,0,0,0-.8.8.79.79,0,0,0,.8.79H366A.79.79,0,0,0,366.83,195.83Zm0,3.7a.79.79,0,0,0-.79-.8H362.8a.8.8,0,1,0,0,1.59H366A.79.79,0,0,0,366.83,199.53Zm12.11-25.89a.8.8,0,0,0-.8-.8h-8.49a.8.8,0,1,0,0,1.59h8.49A.79.79,0,0,0,378.94,173.64Zm0,3.69a.79.79,0,0,0-.8-.79h-8.49a.8.8,0,1,0,0,1.59h8.49A.8.8,0,0,0,378.94,177.33Zm0,3.7a.8.8,0,0,0-.8-.8h-8.49a.8.8,0,0,0,0,1.6h8.49A.8.8,0,0,0,378.94,181Zm0,3.7a.8.8,0,0,0-.8-.8h-8.49a.8.8,0,0,0,0,1.6h8.49A.8.8,0,0,0,378.94,184.73Zm0,3.7a.8.8,0,0,0-.8-.8h-8.49a.8.8,0,1,0,0,1.6h8.49A.8.8,0,0,0,378.94,188.43Zm10.17,3.7a.8.8,0,0,0-.8-.8h-8.49a.8.8,0,0,0,0,1.6h8.49A.8.8,0,0,0,389.11,192.13Zm0,3.7a.8.8,0,0,0-.8-.8h-8.49a.8.8,0,0,0-.8.8.79.79,0,0,0,.8.79h8.49A.79.79,0,0,0,389.11,195.83Zm0,3.7a.8.8,0,0,0-.8-.8h-8.49a.8.8,0,1,0,0,1.59h8.49A.79.79,0,0,0,389.11,199.53Zm-6.43-25.89a.93.93,0,1,0-1.85,0,.93.93,0,0,0,1.85,0Zm2.77,0a.93.93,0,1,0-.92.92A.93.93,0,0,0,385.45,173.64Zm2.78,0a.93.93,0,1,0-1.85,0,.93.93,0,0,0,1.85,0Zm2.77,0a.93.93,0,1,0-.92.92A.93.93,0,0,0,391,173.64Zm2.77,0a.92.92,0,1,0-.92.92A.93.93,0,0,0,393.77,173.64Zm2.78,0a.93.93,0,1,0-1.85,0,.93.93,0,0,0,1.85,0ZM382.68,181a.93.93,0,1,0-.93.93A.92.92,0,0,0,382.68,181Zm2.77,0a.93.93,0,0,0-1.85,0,.93.93,0,1,0,1.85,0Zm2.78,0a.93.93,0,1,0-.93.93A.93.93,0,0,0,388.23,181Zm2.77,0a.93.93,0,0,0-1.85,0,.93.93,0,1,0,1.85,0Zm2.77,0a.92.92,0,1,0-.92.93A.92.92,0,0,0,393.77,181Zm2.78,0a.93.93,0,1,0-.93.93A.93.93,0,0,0,396.55,181Zm-4.39,10.64a.93.93,0,1,0-1.85,0,.93.93,0,0,0,1.85,0Zm2.77,0a.93.93,0,1,0-.92.92A.93.93,0,0,0,394.93,191.67Zm2.77,0a.92.92,0,1,0-.92.92A.93.93,0,0,0,397.7,191.67Zm2.78,0a.93.93,0,1,0-1.85,0,.93.93,0,0,0,1.85,0Zm2.77,0a.93.93,0,1,0-.92.92A.93.93,0,0,0,403.25,191.67Zm2.78,0a.93.93,0,1,0-1.85,0,.93.93,0,0,0,1.85,0Zm-13.87,7.62a.93.93,0,1,0-.93.93A.93.93,0,0,0,392.16,199.29Zm2.77,0a.93.93,0,0,0-1.85,0,.93.93,0,1,0,1.85,0Zm2.77,0a.92.92,0,1,0-.92.93A.92.92,0,0,0,397.7,199.29Zm2.78,0a.93.93,0,1,0-.93.93A.93.93,0,0,0,400.48,199.29Zm2.77,0a.93.93,0,0,0-1.85,0,.93.93,0,1,0,1.85,0Zm2.78,0a.93.93,0,1,0-.93.93A.93.93,0,0,0,406,199.29Z" transform="translate(-41.5 -48.37)"/><path class="cls-5" d="M207.41,76.89h-3.23a.8.8,0,1,1,0-1.59h3.23a.8.8,0,1,1,0,1.59Zm.8,2.9a.79.79,0,0,0-.8-.79h-3.23a.79.79,0,0,0-.8.79.8.8,0,0,0,.8.8h3.23A.8.8,0,0,0,208.21,79.79Zm0,3.7a.8.8,0,0,0-.8-.8h-3.23a.8.8,0,0,0,0,1.6h3.23A.8.8,0,0,0,208.21,83.49Zm0,3.7a.8.8,0,0,0-.8-.8h-3.23a.8.8,0,0,0,0,1.6h3.23A.8.8,0,0,0,208.21,87.19Zm0,3.7a.8.8,0,0,0-.8-.8h-3.23a.8.8,0,0,0,0,1.6h3.23A.8.8,0,0,0,208.21,90.89Zm0,3.7a.8.8,0,0,0-.8-.8h-3.23a.8.8,0,0,0,0,1.6h3.23A.8.8,0,0,0,208.21,94.59Zm0,3.7a.8.8,0,0,0-.8-.8h-3.23a.8.8,0,1,0,0,1.59h3.23A.79.79,0,0,0,208.21,98.29Zm0,3.69a.79.79,0,0,0-.8-.79h-3.23a.8.8,0,1,0,0,1.59h3.23A.8.8,0,0,0,208.21,102ZM220.32,76.1a.8.8,0,0,0-.8-.8H211a.8.8,0,0,0,0,1.59h8.5A.79.79,0,0,0,220.32,76.1Zm0,3.69a.79.79,0,0,0-.8-.79H211a.79.79,0,0,0-.79.79.79.79,0,0,0,.79.8h8.5A.8.8,0,0,0,220.32,79.79Zm0,3.7a.8.8,0,0,0-.8-.8H211a.8.8,0,0,0,0,1.6h8.5A.8.8,0,0,0,220.32,83.49Zm0,3.7a.8.8,0,0,0-.8-.8H211a.8.8,0,0,0,0,1.6h8.5A.8.8,0,0,0,220.32,87.19Zm0,3.7a.8.8,0,0,0-.8-.8H211a.8.8,0,0,0,0,1.6h8.5A.8.8,0,0,0,220.32,90.89Zm10.17,3.7a.8.8,0,0,0-.8-.8h-8.5a.8.8,0,0,0,0,1.6h8.5A.8.8,0,0,0,230.49,94.59Zm0,3.7a.8.8,0,0,0-.8-.8h-8.5a.8.8,0,0,0,0,1.59h8.5A.79.79,0,0,0,230.49,98.29Zm0,3.69a.79.79,0,0,0-.8-.79h-8.5a.8.8,0,0,0,0,1.59h8.5A.8.8,0,0,0,230.49,102ZM224.06,76.1a.93.93,0,1,0-1.85,0,.93.93,0,0,0,1.85,0Zm2.77,0a.93.93,0,1,0-.93.92A.92.92,0,0,0,226.83,76.1Zm2.77,0a.93.93,0,1,0-.92.92A.92.92,0,0,0,229.6,76.1Zm2.78,0a.93.93,0,1,0-1.85,0,.93.93,0,0,0,1.85,0Zm2.77,0a.93.93,0,1,0-.92.92A.92.92,0,0,0,235.15,76.1Zm2.77,0A.92.92,0,1,0,237,77,.92.92,0,0,0,237.92,76.1Zm-13.86,7.39a.93.93,0,1,0-.93.93A.93.93,0,0,0,224.06,83.49Zm2.77,0a.93.93,0,1,0-.93.93A.92.92,0,0,0,226.83,83.49Zm2.77,0a.93.93,0,0,0-1.85,0,.93.93,0,1,0,1.85,0Zm2.78,0a.93.93,0,1,0-.93.93A.93.93,0,0,0,232.38,83.49Zm2.77,0a.93.93,0,0,0-1.85,0,.93.93,0,1,0,1.85,0Zm2.77,0a.92.92,0,1,0-.92.93A.92.92,0,0,0,237.92,83.49Zm-4.39,10.63a.93.93,0,0,0-1.85,0,.93.93,0,1,0,1.85,0Zm2.78,0a.93.93,0,1,0-.93.93A.93.93,0,0,0,236.31,94.12Zm2.77,0a.93.93,0,0,0-1.85,0,.93.93,0,1,0,1.85,0Zm2.77,0a.92.92,0,1,0-.92.93A.92.92,0,0,0,241.85,94.12Zm2.78,0a.93.93,0,1,0-.93.93A.93.93,0,0,0,244.63,94.12Zm2.77,0a.93.93,0,0,0-1.85,0,.93.93,0,1,0,1.85,0Zm-13.87,7.63a.93.93,0,0,0-1.85,0,.93.93,0,1,0,1.85,0Zm2.78,0a.93.93,0,1,0-.93.93A.93.93,0,0,0,236.31,101.75Zm2.77,0a.93.93,0,0,0-1.85,0,.93.93,0,1,0,1.85,0Zm2.77,0a.92.92,0,1,0-.92.93A.92.92,0,0,0,241.85,101.75Zm2.78,0a.93.93,0,1,0-.93.93A.93.93,0,0,0,244.63,101.75Zm2.77,0a.93.93,0,0,0-1.85,0,.93.93,0,1,0,1.85,0Z" transform="translate(-41.5 -48.37)"/><path class="cls-5" d="M207.41,106.49h-3.23a.8.8,0,0,1,0-1.6h3.23a.8.8,0,1,1,0,1.6Zm.8,2.9a.8.8,0,0,0-.8-.8h-3.23a.8.8,0,0,0,0,1.6h3.23A.8.8,0,0,0,208.21,109.39Zm0,3.7a.8.8,0,0,0-.8-.8h-3.23a.8.8,0,0,0,0,1.6h3.23A.8.8,0,0,0,208.21,113.09Zm0,3.7a.8.8,0,0,0-.8-.8h-3.23a.8.8,0,1,0,0,1.59h3.23A.79.79,0,0,0,208.21,116.79Zm0,3.69a.79.79,0,0,0-.8-.79h-3.23a.79.79,0,0,0-.8.79.8.8,0,0,0,.8.8h3.23A.8.8,0,0,0,208.21,120.48Zm0,3.7a.8.8,0,0,0-.8-.8h-3.23a.8.8,0,0,0,0,1.6h3.23A.8.8,0,0,0,208.21,124.18Zm0,3.7a.8.8,0,0,0-.8-.8h-3.23a.8.8,0,0,0,0,1.6h3.23A.8.8,0,0,0,208.21,127.88Zm0,3.7a.8.8,0,0,0-.8-.8h-3.23a.8.8,0,1,0,0,1.6h3.23A.8.8,0,0,0,208.21,131.58Zm12.11-25.89a.8.8,0,0,0-.8-.8H211a.8.8,0,0,0,0,1.6h8.5A.8.8,0,0,0,220.32,105.69Zm0,3.7a.8.8,0,0,0-.8-.8H211a.8.8,0,0,0,0,1.6h8.5A.8.8,0,0,0,220.32,109.39Zm0,3.7a.8.8,0,0,0-.8-.8H211a.8.8,0,0,0,0,1.6h8.5A.8.8,0,0,0,220.32,113.09Zm0,3.7a.8.8,0,0,0-.8-.8H211a.8.8,0,0,0,0,1.59h8.5A.79.79,0,0,0,220.32,116.79Zm0,3.69a.79.79,0,0,0-.8-.79H211a.79.79,0,0,0-.79.79.79.79,0,0,0,.79.8h8.5A.8.8,0,0,0,220.32,120.48Zm10.17,3.7a.8.8,0,0,0-.8-.8h-8.5a.8.8,0,0,0,0,1.6h8.5A.8.8,0,0,0,230.49,124.18Zm0,3.7a.8.8,0,0,0-.8-.8h-8.5a.8.8,0,0,0,0,1.6h8.5A.8.8,0,0,0,230.49,127.88Zm0,3.7a.8.8,0,0,0-.8-.8h-8.5a.8.8,0,0,0,0,1.6h8.5A.8.8,0,0,0,230.49,131.58Zm-6.43-25.89a.93.93,0,1,0-.93.92A.93.93,0,0,0,224.06,105.69Zm2.77,0a.93.93,0,1,0-.93.92A.92.92,0,0,0,226.83,105.69Zm2.77,0a.93.93,0,1,0-.92.92A.92.92,0,0,0,229.6,105.69Zm2.78,0a.93.93,0,1,0-.93.92A.93.93,0,0,0,232.38,105.69Zm2.77,0a.93.93,0,1,0-.92.92A.92.92,0,0,0,235.15,105.69Zm2.77,0a.92.92,0,1,0-.92.92A.92.92,0,0,0,237.92,105.69Zm-13.86,7.4a.93.93,0,1,0-1.85,0,.93.93,0,0,0,1.85,0Zm2.77,0a.93.93,0,1,0-1.85,0,.93.93,0,0,0,1.85,0Zm2.77,0a.93.93,0,1,0-.92.92A.93.93,0,0,0,229.6,113.09Zm2.78,0a.93.93,0,1,0-1.85,0,.93.93,0,0,0,1.85,0Zm2.77,0a.93.93,0,1,0-.92.92A.93.93,0,0,0,235.15,113.09Zm2.77,0a.92.92,0,1,0-.92.92A.93.93,0,0,0,237.92,113.09Zm-4.39,10.63a.93.93,0,1,0-.92.92A.92.92,0,0,0,233.53,123.72Zm2.78,0a.93.93,0,1,0-.93.92A.93.93,0,0,0,236.31,123.72Zm2.77,0a.93.93,0,1,0-.92.92A.92.92,0,0,0,239.08,123.72Zm2.77,0a.92.92,0,1,0-.92.92A.92.92,0,0,0,241.85,123.72Zm2.78,0a.93.93,0,1,0-.93.92A.93.93,0,0,0,244.63,123.72Zm2.77,0a.93.93,0,1,0-.92.92A.92.92,0,0,0,247.4,123.72Zm-13.87,7.63a.93.93,0,1,0-.92.92A.93.93,0,0,0,233.53,131.35Zm2.78,0a.93.93,0,1,0-1.85,0,.93.93,0,0,0,1.85,0Zm2.77,0a.93.93,0,1,0-.92.92A.93.93,0,0,0,239.08,131.35Zm2.77,0a.92.92,0,1,0-.92.92A.93.93,0,0,0,241.85,131.35Zm2.78,0a.93.93,0,1,0-1.85,0,.93.93,0,0,0,1.85,0Zm2.77,0a.93.93,0,1,0-.92.92A.93.93,0,0,0,247.4,131.35Z" transform="translate(-41.5 -48.37)"/><path class="cls-5" d="M207.41,136.8h-3.23a.8.8,0,0,1,0-1.6h3.23a.8.8,0,0,1,0,1.6Zm.8,2.9a.8.8,0,0,0-.8-.8h-3.23a.8.8,0,1,0,0,1.6h3.23A.8.8,0,0,0,208.21,139.7Zm0,3.7a.8.8,0,0,0-.8-.8h-3.23a.8.8,0,1,0,0,1.6h3.23A.8.8,0,0,0,208.21,143.4Zm0,3.7a.8.8,0,0,0-.8-.8h-3.23a.8.8,0,1,0,0,1.59h3.23A.79.79,0,0,0,208.21,147.1Zm0,3.69a.79.79,0,0,0-.8-.79h-3.23a.79.79,0,0,0-.8.79.8.8,0,0,0,.8.8h3.23A.8.8,0,0,0,208.21,150.79Zm0,3.7a.8.8,0,0,0-.8-.8h-3.23a.8.8,0,1,0,0,1.6h3.23A.8.8,0,0,0,208.21,154.49Zm0,3.7a.8.8,0,0,0-.8-.8h-3.23a.8.8,0,0,0,0,1.6h3.23A.8.8,0,0,0,208.21,158.19Zm0,3.7a.8.8,0,0,0-.8-.8h-3.23a.8.8,0,1,0,0,1.6h3.23A.8.8,0,0,0,208.21,161.89ZM220.32,136a.8.8,0,0,0-.8-.8H211a.8.8,0,0,0,0,1.6h8.5A.8.8,0,0,0,220.32,136Zm0,3.7a.8.8,0,0,0-.8-.8H211a.8.8,0,0,0,0,1.6h8.5A.8.8,0,0,0,220.32,139.7Zm0,3.7a.8.8,0,0,0-.8-.8H211a.8.8,0,0,0,0,1.6h8.5A.8.8,0,0,0,220.32,143.4Zm0,3.7a.8.8,0,0,0-.8-.8H211a.8.8,0,0,0,0,1.59h8.5A.79.79,0,0,0,220.32,147.1Zm0,3.69a.79.79,0,0,0-.8-.79H211a.79.79,0,0,0-.79.79.79.79,0,0,0,.79.8h8.5A.8.8,0,0,0,220.32,150.79Zm10.17,3.7a.8.8,0,0,0-.8-.8h-8.5a.8.8,0,0,0,0,1.6h8.5A.8.8,0,0,0,230.49,154.49Zm0,3.7a.8.8,0,0,0-.8-.8h-8.5a.8.8,0,0,0,0,1.6h8.5A.8.8,0,0,0,230.49,158.19Zm0,3.7a.8.8,0,0,0-.8-.8h-8.5a.8.8,0,0,0,0,1.6h8.5A.8.8,0,0,0,230.49,161.89ZM224.06,136a.93.93,0,1,0-.93.92A.93.93,0,0,0,224.06,136Zm2.77,0a.93.93,0,1,0-.93.92A.92.92,0,0,0,226.83,136Zm2.77,0a.93.93,0,1,0-.92.92A.92.92,0,0,0,229.6,136Zm2.78,0a.93.93,0,1,0-.93.92A.93.93,0,0,0,232.38,136Zm2.77,0a.93.93,0,1,0-.92.92A.92.92,0,0,0,235.15,136Zm2.77,0a.92.92,0,1,0-.92.92A.92.92,0,0,0,237.92,136Zm-13.86,7.4a.93.93,0,1,0-1.85,0,.93.93,0,0,0,1.85,0Zm2.77,0a.93.93,0,1,0-1.85,0,.93.93,0,0,0,1.85,0Zm2.77,0a.93.93,0,1,0-.92.92A.93.93,0,0,0,229.6,143.4Zm2.78,0a.93.93,0,1,0-1.85,0,.93.93,0,0,0,1.85,0Zm2.77,0a.93.93,0,1,0-.92.92A.93.93,0,0,0,235.15,143.4Zm2.77,0a.92.92,0,1,0-.92.92A.93.93,0,0,0,237.92,143.4ZM233.53,154a.93.93,0,1,0-.92.92A.92.92,0,0,0,233.53,154Zm2.78,0a.93.93,0,1,0-.93.92A.93.93,0,0,0,236.31,154Zm2.77,0a.93.93,0,1,0-.92.92A.92.92,0,0,0,239.08,154Zm2.77,0a.92.92,0,1,0-.92.92A.92.92,0,0,0,241.85,154Zm2.78,0a.93.93,0,1,0-.93.92A.93.93,0,0,0,244.63,154Zm2.77,0a.93.93,0,1,0-.92.92A.92.92,0,0,0,247.4,154Zm-13.87,7.63a.93.93,0,1,0-.92.92A.93.93,0,0,0,233.53,161.66Zm2.78,0a.93.93,0,1,0-1.85,0,.93.93,0,0,0,1.85,0Zm2.77,0a.93.93,0,1,0-.92.92A.93.93,0,0,0,239.08,161.66Zm2.77,0a.92.92,0,1,0-.92.92A.93.93,0,0,0,241.85,161.66Zm2.78,0a.93.93,0,1,0-1.85,0,.93.93,0,0,0,1.85,0Zm2.77,0a.93.93,0,1,0-.92.92A.93.93,0,0,0,247.4,161.66Z" transform="translate(-41.5 -48.37)"/><path class="cls-5" d="M257.1,76.89h-3.24a.8.8,0,1,1,0-1.59h3.24a.8.8,0,1,1,0,1.59Zm.8,2.9a.79.79,0,0,0-.8-.79h-3.24a.79.79,0,0,0-.8.79.8.8,0,0,0,.8.8h3.24A.8.8,0,0,0,257.9,79.79Zm0,3.7a.8.8,0,0,0-.8-.8h-3.24a.8.8,0,1,0,0,1.6h3.24A.8.8,0,0,0,257.9,83.49Zm0,3.7a.8.8,0,0,0-.8-.8h-3.24a.8.8,0,0,0,0,1.6h3.24A.8.8,0,0,0,257.9,87.19Zm0,3.7a.8.8,0,0,0-.8-.8h-3.24a.8.8,0,0,0,0,1.6h3.24A.8.8,0,0,0,257.9,90.89Zm0,3.7a.8.8,0,0,0-.8-.8h-3.24a.8.8,0,0,0,0,1.6h3.24A.8.8,0,0,0,257.9,94.59Zm0,3.7a.8.8,0,0,0-.8-.8h-3.24a.8.8,0,1,0,0,1.59h3.24A.79.79,0,0,0,257.9,98.29Zm0,3.69a.79.79,0,0,0-.8-.79h-3.24a.8.8,0,1,0,0,1.59h3.24A.8.8,0,0,0,257.9,102ZM270,76.1a.8.8,0,0,0-.8-.8h-8.49a.8.8,0,1,0,0,1.59h8.49A.79.79,0,0,0,270,76.1Zm0,3.69a.79.79,0,0,0-.8-.79h-8.49a.79.79,0,0,0-.8.79.8.8,0,0,0,.8.8h8.49A.8.8,0,0,0,270,79.79Zm0,3.7a.8.8,0,0,0-.8-.8h-8.49a.8.8,0,1,0,0,1.6h8.49A.8.8,0,0,0,270,83.49Zm0,3.7a.8.8,0,0,0-.8-.8h-8.49a.8.8,0,0,0,0,1.6h8.49A.8.8,0,0,0,270,87.19Zm0,3.7a.8.8,0,0,0-.8-.8h-8.49a.8.8,0,0,0,0,1.6h8.49A.8.8,0,0,0,270,90.89Zm10.17,3.7a.8.8,0,0,0-.8-.8h-8.49a.8.8,0,0,0,0,1.6h8.49A.8.8,0,0,0,280.17,94.59Zm0,3.7a.79.79,0,0,0-.8-.8h-8.49a.8.8,0,1,0,0,1.59h8.49A.79.79,0,0,0,280.17,98.29Zm0,3.69a.79.79,0,0,0-.8-.79h-8.49a.8.8,0,1,0,0,1.59h8.49A.79.79,0,0,0,280.17,102ZM273.74,76.1a.93.93,0,1,0-.92.92A.92.92,0,0,0,273.74,76.1Zm2.77,0a.93.93,0,1,0-.92.92A.92.92,0,0,0,276.51,76.1Zm2.78,0a.93.93,0,1,0-1.85,0,.93.93,0,0,0,1.85,0Zm2.77,0a.93.93,0,1,0-.92.92A.92.92,0,0,0,282.06,76.1Zm2.78,0a.93.93,0,1,0-1.85,0,.93.93,0,0,0,1.85,0Zm2.77,0a.93.93,0,1,0-.93.92A.92.92,0,0,0,287.61,76.1Zm-13.87,7.39a.93.93,0,0,0-1.85,0,.93.93,0,1,0,1.85,0Zm2.77,0a.93.93,0,0,0-1.85,0,.93.93,0,1,0,1.85,0Zm2.78,0a.93.93,0,1,0-.93.93A.93.93,0,0,0,279.29,83.49Zm2.77,0a.93.93,0,0,0-1.85,0,.93.93,0,1,0,1.85,0Zm2.78,0a.93.93,0,1,0-.93.93A.93.93,0,0,0,284.84,83.49Zm2.77,0a.93.93,0,1,0-.93.93A.92.92,0,0,0,287.61,83.49Zm-4.39,10.63a.93.93,0,1,0-.93.93A.93.93,0,0,0,283.22,94.12Zm2.77,0a.93.93,0,0,0-1.85,0,.93.93,0,1,0,1.85,0Zm2.78,0a.93.93,0,1,0-.93.93A.93.93,0,0,0,288.77,94.12Zm2.77,0a.93.93,0,1,0-.93.93A.93.93,0,0,0,291.54,94.12Zm2.77,0a.93.93,0,0,0-1.85,0,.93.93,0,1,0,1.85,0Zm2.78,0a.93.93,0,1,0-.93.93A.93.93,0,0,0,297.09,94.12Zm-13.87,7.63a.93.93,0,1,0-.93.93A.93.93,0,0,0,283.22,101.75Zm2.77,0a.93.93,0,0,0-1.85,0,.93.93,0,1,0,1.85,0Zm2.78,0a.93.93,0,1,0-.93.93A.93.93,0,0,0,288.77,101.75Zm2.77,0a.93.93,0,1,0-.93.93A.93.93,0,0,0,291.54,101.75Zm2.77,0a.93.93,0,0,0-1.85,0,.93.93,0,1,0,1.85,0Zm2.78,0a.93.93,0,1,0-.93.93A.93.93,0,0,0,297.09,101.75Z" transform="translate(-41.5 -48.37)"/><path class="cls-5" d="M257.1,107.2h-3.24a.8.8,0,1,1,0-1.59h3.24a.8.8,0,1,1,0,1.59Zm.8,2.9a.79.79,0,0,0-.8-.79h-3.24a.79.79,0,0,0-.8.79.8.8,0,0,0,.8.8h3.24A.8.8,0,0,0,257.9,110.1Zm0,3.7a.8.8,0,0,0-.8-.8h-3.24a.8.8,0,0,0,0,1.6h3.24A.8.8,0,0,0,257.9,113.8Zm0,3.7a.8.8,0,0,0-.8-.8h-3.24a.8.8,0,0,0,0,1.6h3.24A.8.8,0,0,0,257.9,117.5Zm0,3.7a.8.8,0,0,0-.8-.8h-3.24a.8.8,0,0,0,0,1.6h3.24A.8.8,0,0,0,257.9,121.2Zm0,3.7a.8.8,0,0,0-.8-.8h-3.24a.8.8,0,0,0,0,1.6h3.24A.8.8,0,0,0,257.9,124.9Zm0,3.7a.8.8,0,0,0-.8-.8h-3.24a.8.8,0,1,0,0,1.59h3.24A.79.79,0,0,0,257.9,128.6Zm0,3.69a.79.79,0,0,0-.8-.79h-3.24a.8.8,0,1,0,0,1.59h3.24A.8.8,0,0,0,257.9,132.29ZM270,106.4a.79.79,0,0,0-.8-.79h-8.49a.8.8,0,1,0,0,1.59h8.49A.8.8,0,0,0,270,106.4Zm0,3.7a.79.79,0,0,0-.8-.79h-8.49a.79.79,0,0,0-.8.79.8.8,0,0,0,.8.8h8.49A.8.8,0,0,0,270,110.1Zm0,3.7a.8.8,0,0,0-.8-.8h-8.49a.8.8,0,0,0,0,1.6h8.49A.8.8,0,0,0,270,113.8Zm0,3.7a.8.8,0,0,0-.8-.8h-8.49a.8.8,0,0,0,0,1.6h8.49A.8.8,0,0,0,270,117.5Zm0,3.7a.8.8,0,0,0-.8-.8h-8.49a.8.8,0,0,0,0,1.6h8.49A.8.8,0,0,0,270,121.2Zm10.17,3.7a.8.8,0,0,0-.8-.8h-8.49a.8.8,0,0,0,0,1.6h8.49A.8.8,0,0,0,280.17,124.9Zm0,3.7a.79.79,0,0,0-.8-.8h-8.49a.8.8,0,1,0,0,1.59h8.49A.79.79,0,0,0,280.17,128.6Zm0,3.69a.79.79,0,0,0-.8-.79h-8.49a.8.8,0,1,0,0,1.59h8.49A.79.79,0,0,0,280.17,132.29Zm-6.43-25.89a.93.93,0,1,0-.92.93A.92.92,0,0,0,273.74,106.4Zm2.77,0a.93.93,0,0,0-1.85,0,.93.93,0,1,0,1.85,0Zm2.78,0a.93.93,0,1,0-.93.93A.93.93,0,0,0,279.29,106.4Zm2.77,0a.93.93,0,0,0-1.85,0,.93.93,0,1,0,1.85,0Zm2.78,0a.93.93,0,1,0-.93.93A.93.93,0,0,0,284.84,106.4Zm2.77,0a.93.93,0,1,0-.93.93A.92.92,0,0,0,287.61,106.4Zm-13.87,7.4a.93.93,0,0,0-1.85,0,.93.93,0,1,0,1.85,0Zm2.77,0a.93.93,0,0,0-1.85,0,.93.93,0,1,0,1.85,0Zm2.78,0a.93.93,0,1,0-.93.93A.93.93,0,0,0,279.29,113.8Zm2.77,0a.93.93,0,0,0-1.85,0,.93.93,0,1,0,1.85,0Zm2.78,0a.93.93,0,1,0-.93.93A.93.93,0,0,0,284.84,113.8Zm2.77,0a.93.93,0,1,0-.93.93A.92.92,0,0,0,287.61,113.8Zm-4.39,10.63a.93.93,0,1,0-.93.93A.93.93,0,0,0,283.22,124.43Zm2.77,0a.93.93,0,0,0-1.85,0,.93.93,0,1,0,1.85,0Zm2.78,0a.93.93,0,1,0-.93.93A.93.93,0,0,0,288.77,124.43Zm2.77,0a.93.93,0,1,0-.93.93A.93.93,0,0,0,291.54,124.43Zm2.77,0a.93.93,0,0,0-1.85,0,.93.93,0,1,0,1.85,0Zm2.78,0a.93.93,0,1,0-.93.93A.93.93,0,0,0,297.09,124.43Zm-13.87,7.63a.93.93,0,1,0-.93.93A.93.93,0,0,0,283.22,132.06Zm2.77,0a.93.93,0,0,0-1.85,0,.93.93,0,1,0,1.85,0Zm2.78,0a.93.93,0,1,0-.93.93A.93.93,0,0,0,288.77,132.06Zm2.77,0a.93.93,0,1,0-.93.93A.93.93,0,0,0,291.54,132.06Zm2.77,0a.93.93,0,0,0-1.85,0,.93.93,0,1,0,1.85,0Zm2.78,0a.93.93,0,1,0-.93.93A.93.93,0,0,0,297.09,132.06Z" transform="translate(-41.5 -48.37)"/><path class="cls-5" d="M98,144.12H94.77a.79.79,0,0,1-.8-.79.8.8,0,0,1,.8-.8H98a.8.8,0,0,1,.8.8A.79.79,0,0,1,98,144.12Zm.8,2.9a.79.79,0,0,0-.8-.79H94.77a.8.8,0,1,0,0,1.59H98A.8.8,0,0,0,98.81,147Zm0,3.7a.8.8,0,0,0-.8-.8H94.77a.8.8,0,0,0,0,1.6H98A.8.8,0,0,0,98.81,150.72Zm0,3.7a.8.8,0,0,0-.8-.8H94.77a.8.8,0,0,0,0,1.6H98A.8.8,0,0,0,98.81,154.42Zm0,3.7a.8.8,0,0,0-.8-.8H94.77a.8.8,0,1,0,0,1.6H98A.8.8,0,0,0,98.81,158.12Zm0,3.7a.8.8,0,0,0-.8-.8H94.77a.8.8,0,0,0,0,1.6H98A.8.8,0,0,0,98.81,161.82Zm0,3.7a.8.8,0,0,0-.8-.8H94.77a.8.8,0,0,0,0,1.6H98A.8.8,0,0,0,98.81,165.52Zm0,3.7a.8.8,0,0,0-.8-.8H94.77a.8.8,0,1,0,0,1.59H98A.79.79,0,0,0,98.81,169.22Zm12.1-25.89a.79.79,0,0,0-.79-.8h-8.5a.8.8,0,0,0-.8.8.79.79,0,0,0,.8.79h8.5A.79.79,0,0,0,110.91,143.33Zm0,3.69a.79.79,0,0,0-.79-.79h-8.5a.8.8,0,1,0,0,1.59h8.5A.79.79,0,0,0,110.91,147Zm0,3.7a.79.79,0,0,0-.79-.8h-8.5a.8.8,0,0,0,0,1.6h8.5A.79.79,0,0,0,110.91,150.72Zm0,3.7a.79.79,0,0,0-.79-.8h-8.5a.8.8,0,1,0,0,1.6h8.5A.79.79,0,0,0,110.91,154.42Zm0,3.7a.79.79,0,0,0-.79-.8h-8.5a.8.8,0,1,0,0,1.6h8.5A.79.79,0,0,0,110.91,158.12Zm10.17,3.7a.79.79,0,0,0-.79-.8h-8.5a.8.8,0,1,0,0,1.6h8.5A.79.79,0,0,0,121.08,161.82Zm0,3.7a.79.79,0,0,0-.79-.8h-8.5a.8.8,0,1,0,0,1.6h8.5A.79.79,0,0,0,121.08,165.52Zm0,3.7a.79.79,0,0,0-.79-.8h-8.5a.8.8,0,1,0,0,1.59h8.5A.79.79,0,0,0,121.08,169.22Zm-6.43-25.89a.93.93,0,1,0-.92.92A.93.93,0,0,0,114.65,143.33Zm2.78,0a.93.93,0,1,0-1.85,0,.93.93,0,0,0,1.85,0Zm2.77,0a.93.93,0,1,0-1.85,0,.93.93,0,0,0,1.85,0Zm2.77,0a.93.93,0,1,0-.92.92A.93.93,0,0,0,123,143.33Zm2.78,0a.93.93,0,1,0-1.85,0,.93.93,0,0,0,1.85,0Zm2.77,0a.93.93,0,1,0-.92.92A.93.93,0,0,0,128.52,143.33Zm-13.87,7.39a.93.93,0,0,0-1.85,0,.93.93,0,1,0,1.85,0Zm2.78,0a.93.93,0,1,0-.93.93A.93.93,0,0,0,117.43,150.72Zm2.77,0a.93.93,0,1,0-.93.93A.92.92,0,0,0,120.2,150.72Zm2.77,0a.93.93,0,0,0-1.85,0,.93.93,0,1,0,1.85,0Zm2.78,0a.93.93,0,1,0-.93.93A.93.93,0,0,0,125.75,150.72Zm2.77,0a.93.93,0,0,0-1.85,0,.93.93,0,1,0,1.85,0Zm-4.39,10.64a.93.93,0,1,0-1.85,0,.93.93,0,0,0,1.85,0Zm2.77,0a.93.93,0,1,0-.92.92A.93.93,0,0,0,126.9,161.36Zm2.78,0a.93.93,0,1,0-1.85,0,.93.93,0,0,0,1.85,0Zm2.77,0a.93.93,0,1,0-.92.92A.93.93,0,0,0,132.45,161.36Zm2.77,0a.92.92,0,1,0-.92.92A.93.93,0,0,0,135.22,161.36Zm2.78,0a.93.93,0,1,0-1.85,0,.93.93,0,0,0,1.85,0ZM124.13,169a.93.93,0,1,0-.93.93A.93.93,0,0,0,124.13,169Zm2.77,0a.93.93,0,0,0-1.85,0,.93.93,0,1,0,1.85,0Zm2.78,0a.93.93,0,1,0-.93.93A.93.93,0,0,0,129.68,169Zm2.77,0a.93.93,0,0,0-1.85,0,.93.93,0,1,0,1.85,0Zm2.77,0a.92.92,0,1,0-.92.93A.92.92,0,0,0,135.22,169Zm2.78,0a.93.93,0,1,0-.93.93A.93.93,0,0,0,138,169Z" transform="translate(-41.5 -48.37)"/><path class="cls-5" d="M98,173.72H94.77a.8.8,0,1,1,0-1.6H98a.8.8,0,1,1,0,1.6Zm.8,2.9a.8.8,0,0,0-.8-.8H94.77a.8.8,0,0,0,0,1.6H98A.8.8,0,0,0,98.81,176.62Zm0,3.7a.8.8,0,0,0-.8-.8H94.77a.8.8,0,1,0,0,1.6H98A.8.8,0,0,0,98.81,180.32Zm0,3.7a.8.8,0,0,0-.8-.8H94.77a.8.8,0,0,0-.8.8.79.79,0,0,0,.8.79H98A.79.79,0,0,0,98.81,184Zm0,3.69a.79.79,0,0,0-.8-.79H94.77a.8.8,0,1,0,0,1.59H98A.8.8,0,0,0,98.81,187.71Zm0,3.7a.79.79,0,0,0-.8-.79H94.77a.8.8,0,1,0,0,1.59H98A.8.8,0,0,0,98.81,191.41Zm0,3.7a.8.8,0,0,0-.8-.8H94.77a.8.8,0,0,0,0,1.6H98A.8.8,0,0,0,98.81,195.11Zm0,3.7a.8.8,0,0,0-.8-.8H94.77a.8.8,0,1,0,0,1.6H98A.8.8,0,0,0,98.81,198.81Zm12.1-25.89a.79.79,0,0,0-.79-.8h-8.5a.8.8,0,1,0,0,1.6h8.5A.79.79,0,0,0,110.91,172.92Zm0,3.7a.79.79,0,0,0-.79-.8h-8.5a.8.8,0,1,0,0,1.6h8.5A.79.79,0,0,0,110.91,176.62Zm0,3.7a.79.79,0,0,0-.79-.8h-8.5a.8.8,0,1,0,0,1.6h8.5A.79.79,0,0,0,110.91,180.32Zm0,3.7a.79.79,0,0,0-.79-.8h-8.5a.8.8,0,0,0-.8.8.79.79,0,0,0,.8.79h8.5A.79.79,0,0,0,110.91,184Zm0,3.69a.79.79,0,0,0-.79-.79h-8.5a.8.8,0,1,0,0,1.59h8.5A.79.79,0,0,0,110.91,187.71Zm10.17,3.7a.79.79,0,0,0-.79-.79h-8.5a.8.8,0,1,0,0,1.59h8.5A.79.79,0,0,0,121.08,191.41Zm0,3.7a.79.79,0,0,0-.79-.8h-8.5a.8.8,0,1,0,0,1.6h8.5A.79.79,0,0,0,121.08,195.11Zm0,3.7a.79.79,0,0,0-.79-.8h-8.5a.8.8,0,0,0,0,1.6h8.5A.79.79,0,0,0,121.08,198.81Zm-6.43-25.89a.93.93,0,0,0-1.85,0,.93.93,0,1,0,1.85,0Zm2.78,0a.93.93,0,1,0-.93.93A.93.93,0,0,0,117.43,172.92Zm2.77,0a.93.93,0,1,0-.93.93A.92.92,0,0,0,120.2,172.92Zm2.77,0a.93.93,0,0,0-1.85,0,.93.93,0,1,0,1.85,0Zm2.78,0a.93.93,0,1,0-.93.93A.93.93,0,0,0,125.75,172.92Zm2.77,0a.93.93,0,0,0-1.85,0,.93.93,0,1,0,1.85,0Zm-13.87,7.4a.93.93,0,1,0-.92.92A.93.93,0,0,0,114.65,180.32Zm2.78,0a.93.93,0,1,0-1.85,0,.93.93,0,0,0,1.85,0Zm2.77,0a.93.93,0,1,0-1.85,0,.93.93,0,0,0,1.85,0Zm2.77,0a.93.93,0,1,0-.92.92A.93.93,0,0,0,123,180.32Zm2.78,0a.93.93,0,1,0-1.85,0,.93.93,0,0,0,1.85,0Zm2.77,0a.93.93,0,1,0-.92.92A.93.93,0,0,0,128.52,180.32ZM124.13,191a.93.93,0,1,0-.93.93A.93.93,0,0,0,124.13,191Zm2.77,0a.93.93,0,0,0-1.85,0,.93.93,0,1,0,1.85,0Zm2.78,0a.93.93,0,1,0-.93.93A.93.93,0,0,0,129.68,191Zm2.77,0a.93.93,0,0,0-1.85,0,.93.93,0,1,0,1.85,0Zm2.77,0a.92.92,0,1,0-.92.93A.92.92,0,0,0,135.22,191Zm2.78,0a.93.93,0,1,0-.93.93A.93.93,0,0,0,138,191Zm-13.87,7.63a.93.93,0,1,0-1.85,0,.93.93,0,0,0,1.85,0Zm2.77,0a.93.93,0,1,0-.92.92A.93.93,0,0,0,126.9,198.58Zm2.78,0a.93.93,0,1,0-1.85,0,.93.93,0,0,0,1.85,0Zm2.77,0a.93.93,0,1,0-.92.92A.93.93,0,0,0,132.45,198.58Zm2.77,0a.92.92,0,1,0-.92.92A.93.93,0,0,0,135.22,198.58Zm2.78,0a.93.93,0,1,0-1.85,0,.93.93,0,0,0,1.85,0Z" transform="translate(-41.5 -48.37)"/><path class="cls-5" d="M98,204H94.77a.8.8,0,1,1,0-1.6H98a.8.8,0,1,1,0,1.6Zm.8,2.9a.8.8,0,0,0-.8-.8H94.77a.8.8,0,0,0,0,1.6H98A.8.8,0,0,0,98.81,206.93Zm0,3.7a.8.8,0,0,0-.8-.8H94.77a.8.8,0,1,0,0,1.6H98A.8.8,0,0,0,98.81,210.63Zm0,3.7a.8.8,0,0,0-.8-.8H94.77a.8.8,0,0,0-.8.8.79.79,0,0,0,.8.79H98A.79.79,0,0,0,98.81,214.33Zm0,3.69a.79.79,0,0,0-.8-.79H94.77a.8.8,0,1,0,0,1.59H98A.8.8,0,0,0,98.81,218Zm0,3.7a.79.79,0,0,0-.8-.79H94.77a.79.79,0,0,0-.8.79.8.8,0,0,0,.8.8H98A.8.8,0,0,0,98.81,221.72Zm0,3.7a.8.8,0,0,0-.8-.8H94.77a.8.8,0,1,0,0,1.6H98A.8.8,0,0,0,98.81,225.42Zm0,3.7a.8.8,0,0,0-.8-.8H94.77a.8.8,0,0,0,0,1.6H98A.8.8,0,0,0,98.81,229.12Zm12.1-25.89a.79.79,0,0,0-.79-.8h-8.5a.8.8,0,1,0,0,1.6h8.5A.79.79,0,0,0,110.91,203.23Zm0,3.7a.79.79,0,0,0-.79-.8h-8.5a.8.8,0,1,0,0,1.6h8.5A.79.79,0,0,0,110.91,206.93Zm0,3.7a.79.79,0,0,0-.79-.8h-8.5a.8.8,0,1,0,0,1.6h8.5A.79.79,0,0,0,110.91,210.63Zm0,3.7a.79.79,0,0,0-.79-.8h-8.5a.8.8,0,0,0-.8.8.79.79,0,0,0,.8.79h8.5A.79.79,0,0,0,110.91,214.33Zm0,3.69a.79.79,0,0,0-.79-.79h-8.5a.8.8,0,1,0,0,1.59h8.5A.79.79,0,0,0,110.91,218Zm10.17,3.7a.79.79,0,0,0-.79-.79h-8.5a.79.79,0,0,0-.8.79.8.8,0,0,0,.8.8h8.5A.79.79,0,0,0,121.08,221.72Zm0,3.7a.79.79,0,0,0-.79-.8h-8.5a.8.8,0,1,0,0,1.6h8.5A.79.79,0,0,0,121.08,225.42Zm0,3.7a.79.79,0,0,0-.79-.8h-8.5a.8.8,0,1,0,0,1.6h8.5A.79.79,0,0,0,121.08,229.12Zm-6.43-25.89a.93.93,0,0,0-1.85,0,.93.93,0,1,0,1.85,0Zm2.78,0a.93.93,0,1,0-.93.93A.93.93,0,0,0,117.43,203.23Zm2.77,0a.93.93,0,1,0-.93.93A.92.92,0,0,0,120.2,203.23Zm2.77,0a.93.93,0,0,0-1.85,0,.93.93,0,1,0,1.85,0Zm2.78,0a.93.93,0,1,0-.93.93A.93.93,0,0,0,125.75,203.23Zm2.77,0a.93.93,0,0,0-1.85,0,.93.93,0,1,0,1.85,0Zm-13.87,7.4a.93.93,0,1,0-.92.92A.93.93,0,0,0,114.65,210.63Zm2.78,0a.93.93,0,1,0-1.85,0,.93.93,0,0,0,1.85,0Zm2.77,0a.93.93,0,1,0-1.85,0,.93.93,0,0,0,1.85,0Zm2.77,0a.93.93,0,1,0-.92.92A.93.93,0,0,0,123,210.63Zm2.78,0a.93.93,0,1,0-1.85,0,.93.93,0,0,0,1.85,0Zm2.77,0a.93.93,0,1,0-.92.92A.93.93,0,0,0,128.52,210.63Zm-4.39,10.63a.93.93,0,1,0-.93.93A.93.93,0,0,0,124.13,221.26Zm2.77,0a.93.93,0,0,0-1.85,0,.93.93,0,1,0,1.85,0Zm2.78,0a.93.93,0,1,0-.93.93A.93.93,0,0,0,129.68,221.26Zm2.77,0a.93.93,0,0,0-1.85,0,.93.93,0,1,0,1.85,0Zm2.77,0a.92.92,0,1,0-.92.93A.92.92,0,0,0,135.22,221.26Zm2.78,0a.93.93,0,1,0-.93.93A.93.93,0,0,0,138,221.26Zm-13.87,7.63a.93.93,0,1,0-1.85,0,.93.93,0,0,0,1.85,0Zm2.77,0a.93.93,0,1,0-.92.92A.93.93,0,0,0,126.9,228.89Zm2.78,0a.93.93,0,1,0-1.85,0,.93.93,0,0,0,1.85,0Zm2.77,0a.93.93,0,1,0-.92.92A.93.93,0,0,0,132.45,228.89Zm2.77,0a.92.92,0,1,0-.92.92A.93.93,0,0,0,135.22,228.89Zm2.78,0a.93.93,0,1,0-1.85,0,.93.93,0,0,0,1.85,0Z" transform="translate(-41.5 -48.37)"/><path class="cls-5" d="M147.69,144.12h-3.23a.79.79,0,0,1-.8-.79.8.8,0,0,1,.8-.8h3.23a.8.8,0,0,1,.8.8A.79.79,0,0,1,147.69,144.12Zm.8,2.9a.79.79,0,0,0-.8-.79h-3.23a.8.8,0,1,0,0,1.59h3.23A.8.8,0,0,0,148.49,147Zm0,3.7a.8.8,0,0,0-.8-.8h-3.23a.8.8,0,0,0,0,1.6h3.23A.8.8,0,0,0,148.49,150.72Zm0,3.7a.8.8,0,0,0-.8-.8h-3.23a.8.8,0,0,0,0,1.6h3.23A.8.8,0,0,0,148.49,154.42Zm0,3.7a.8.8,0,0,0-.8-.8h-3.23a.8.8,0,1,0,0,1.6h3.23A.8.8,0,0,0,148.49,158.12Zm0,3.7a.8.8,0,0,0-.8-.8h-3.23a.8.8,0,1,0,0,1.6h3.23A.8.8,0,0,0,148.49,161.82Zm0,3.7a.8.8,0,0,0-.8-.8h-3.23a.8.8,0,1,0,0,1.6h3.23A.8.8,0,0,0,148.49,165.52Zm0,3.7a.8.8,0,0,0-.8-.8h-3.23a.8.8,0,1,0,0,1.59h3.23A.79.79,0,0,0,148.49,169.22Zm12.11-25.89a.8.8,0,0,0-.8-.8h-8.5a.79.79,0,0,0-.79.8.79.79,0,0,0,.79.79h8.5A.79.79,0,0,0,160.6,143.33Zm0,3.69a.79.79,0,0,0-.8-.79h-8.5a.8.8,0,0,0,0,1.59h8.5A.8.8,0,0,0,160.6,147Zm0,3.7a.8.8,0,0,0-.8-.8h-8.5a.8.8,0,0,0,0,1.6h8.5A.8.8,0,0,0,160.6,150.72Zm0,3.7a.8.8,0,0,0-.8-.8h-8.5a.8.8,0,0,0,0,1.6h8.5A.8.8,0,0,0,160.6,154.42Zm0,3.7a.8.8,0,0,0-.8-.8h-8.5a.8.8,0,0,0,0,1.6h8.5A.8.8,0,0,0,160.6,158.12Zm10.17,3.7a.8.8,0,0,0-.8-.8h-8.49a.8.8,0,0,0,0,1.6H170A.8.8,0,0,0,170.77,161.82Zm0,3.7a.8.8,0,0,0-.8-.8h-8.49a.8.8,0,0,0,0,1.6H170A.8.8,0,0,0,170.77,165.52Zm0,3.7a.8.8,0,0,0-.8-.8h-8.49a.8.8,0,1,0,0,1.59H170A.79.79,0,0,0,170.77,169.22Zm-6.43-25.89a.93.93,0,1,0-1.85,0,.93.93,0,0,0,1.85,0Zm2.77,0a.93.93,0,1,0-.92.92A.93.93,0,0,0,167.11,143.33Zm2.77,0a.93.93,0,1,0-.92.92A.93.93,0,0,0,169.88,143.33Zm2.78,0a.93.93,0,1,0-1.85,0,.93.93,0,0,0,1.85,0Zm2.77,0a.93.93,0,1,0-.92.92A.93.93,0,0,0,175.43,143.33Zm2.78,0a.93.93,0,1,0-1.85,0,.93.93,0,0,0,1.85,0Zm-13.87,7.39a.93.93,0,1,0-.93.93A.93.93,0,0,0,164.34,150.72Zm2.77,0a.93.93,0,0,0-1.85,0,.93.93,0,1,0,1.85,0Zm2.77,0a.93.93,0,0,0-1.85,0,.93.93,0,1,0,1.85,0Zm2.78,0a.93.93,0,1,0-.93.93A.93.93,0,0,0,172.66,150.72Zm2.77,0a.93.93,0,0,0-1.85,0,.93.93,0,1,0,1.85,0Zm2.78,0a.93.93,0,1,0-.93.93A.93.93,0,0,0,178.21,150.72Zm-4.4,10.64a.93.93,0,1,0-.92.92A.93.93,0,0,0,173.81,161.36Zm2.78,0a.93.93,0,1,0-1.85,0,.93.93,0,0,0,1.85,0Zm2.77,0a.93.93,0,1,0-.92.92A.93.93,0,0,0,179.36,161.36Zm2.78,0a.93.93,0,1,0-1.85,0,.93.93,0,0,0,1.85,0Zm2.77,0a.93.93,0,1,0-1.85,0,.93.93,0,0,0,1.85,0Zm2.77,0a.93.93,0,1,0-.92.92A.93.93,0,0,0,187.68,161.36ZM173.81,169a.93.93,0,0,0-1.85,0,.93.93,0,1,0,1.85,0Zm2.78,0a.93.93,0,1,0-.93.93A.93.93,0,0,0,176.59,169Zm2.77,0a.93.93,0,0,0-1.85,0,.93.93,0,1,0,1.85,0Zm2.78,0a.93.93,0,1,0-.93.93A.93.93,0,0,0,182.14,169Zm2.77,0a.93.93,0,1,0-.93.93A.93.93,0,0,0,184.91,169Zm2.77,0a.93.93,0,0,0-1.85,0,.93.93,0,1,0,1.85,0Z" transform="translate(-41.5 -48.37)"/><path class="cls-5" d="M147.69,174.43h-3.23a.8.8,0,1,1,0-1.59h3.23a.8.8,0,1,1,0,1.59Zm.8,2.9a.79.79,0,0,0-.8-.79h-3.23a.8.8,0,1,0,0,1.59h3.23A.8.8,0,0,0,148.49,177.33Zm0,3.7a.8.8,0,0,0-.8-.8h-3.23a.8.8,0,0,0,0,1.6h3.23A.8.8,0,0,0,148.49,181Zm0,3.7a.8.8,0,0,0-.8-.8h-3.23a.8.8,0,0,0,0,1.6h3.23A.8.8,0,0,0,148.49,184.73Zm0,3.7a.8.8,0,0,0-.8-.8h-3.23a.8.8,0,1,0,0,1.6h3.23A.8.8,0,0,0,148.49,188.43Zm0,3.7a.8.8,0,0,0-.8-.8h-3.23a.8.8,0,0,0,0,1.6h3.23A.8.8,0,0,0,148.49,192.13Zm0,3.7a.8.8,0,0,0-.8-.8h-3.23a.8.8,0,0,0-.8.8.79.79,0,0,0,.8.79h3.23A.79.79,0,0,0,148.49,195.83Zm0,3.7a.8.8,0,0,0-.8-.8h-3.23a.8.8,0,1,0,0,1.59h3.23A.79.79,0,0,0,148.49,199.53Zm12.11-25.89a.8.8,0,0,0-.8-.8h-8.5a.8.8,0,0,0,0,1.59h8.5A.79.79,0,0,0,160.6,173.64Zm0,3.69a.79.79,0,0,0-.8-.79h-8.5a.8.8,0,0,0,0,1.59h8.5A.8.8,0,0,0,160.6,177.33Zm0,3.7a.8.8,0,0,0-.8-.8h-8.5a.8.8,0,0,0,0,1.6h8.5A.8.8,0,0,0,160.6,181Zm0,3.7a.8.8,0,0,0-.8-.8h-8.5a.8.8,0,0,0,0,1.6h8.5A.8.8,0,0,0,160.6,184.73Zm0,3.7a.8.8,0,0,0-.8-.8h-8.5a.8.8,0,0,0,0,1.6h8.5A.8.8,0,0,0,160.6,188.43Zm10.17,3.7a.8.8,0,0,0-.8-.8h-8.49a.8.8,0,0,0,0,1.6H170A.8.8,0,0,0,170.77,192.13Zm0,3.7a.8.8,0,0,0-.8-.8h-8.49a.8.8,0,0,0-.8.8.79.79,0,0,0,.8.79H170A.79.79,0,0,0,170.77,195.83Zm0,3.7a.8.8,0,0,0-.8-.8h-8.49a.8.8,0,1,0,0,1.59H170A.79.79,0,0,0,170.77,199.53Zm-6.43-25.89a.93.93,0,1,0-1.85,0,.93.93,0,0,0,1.85,0Zm2.77,0a.93.93,0,1,0-.92.92A.93.93,0,0,0,167.11,173.64Zm2.77,0a.93.93,0,1,0-.92.92A.93.93,0,0,0,169.88,173.64Zm2.78,0a.93.93,0,1,0-1.85,0,.93.93,0,0,0,1.85,0Zm2.77,0a.93.93,0,1,0-.92.92A.93.93,0,0,0,175.43,173.64Zm2.78,0a.93.93,0,1,0-1.85,0,.93.93,0,0,0,1.85,0ZM164.34,181a.93.93,0,1,0-.93.93A.93.93,0,0,0,164.34,181Zm2.77,0a.93.93,0,0,0-1.85,0,.93.93,0,1,0,1.85,0Zm2.77,0a.93.93,0,0,0-1.85,0,.93.93,0,1,0,1.85,0Zm2.78,0a.93.93,0,1,0-.93.93A.93.93,0,0,0,172.66,181Zm2.77,0a.93.93,0,0,0-1.85,0,.93.93,0,1,0,1.85,0Zm2.78,0a.93.93,0,1,0-.93.93A.93.93,0,0,0,178.21,181Zm-4.4,10.64a.93.93,0,1,0-.92.92A.93.93,0,0,0,173.81,191.67Zm2.78,0a.93.93,0,1,0-1.85,0,.93.93,0,0,0,1.85,0Zm2.77,0a.93.93,0,1,0-.92.92A.93.93,0,0,0,179.36,191.67Zm2.78,0a.93.93,0,1,0-1.85,0,.93.93,0,0,0,1.85,0Zm2.77,0a.93.93,0,1,0-1.85,0,.93.93,0,0,0,1.85,0Zm2.77,0a.93.93,0,1,0-.92.92A.93.93,0,0,0,187.68,191.67Zm-13.87,7.62a.93.93,0,0,0-1.85,0,.93.93,0,1,0,1.85,0Zm2.78,0a.93.93,0,1,0-.93.93A.93.93,0,0,0,176.59,199.29Zm2.77,0a.93.93,0,0,0-1.85,0,.93.93,0,1,0,1.85,0Zm2.78,0a.93.93,0,1,0-.93.93A.93.93,0,0,0,182.14,199.29Zm2.77,0a.93.93,0,1,0-.93.93A.93.93,0,0,0,184.91,199.29Zm2.77,0a.93.93,0,0,0-1.85,0,.93.93,0,1,0,1.85,0Z" transform="translate(-41.5 -48.37)"/><path class="cls-2" d="M185.86,347s-7-95-12.5-118.5,21.5-28.5,60.5-31.5,57-.5,65.5,5,12.27,70.44,18,93.5,10,53,10,53Z" transform="translate(-41.5 -48.37)"/><path class="cls-6" d="M253.85,268.23c-5.36,6.69-8,10.42-9.1,12.12a128.8,128.8,0,0,1,6.11-21.6,63.55,63.55,0,0,0,3.72-16.88l-.5.27-.46-.88c.18-.1,18.42-9.78,23.58-18.91l.87.49c-4.66,8.25-19.06,16.59-23,18.77,3.74-.36,15.42-2.14,22.36-10.72,8.36-10.32,6.88-23.1,6.88-23.1S268.59,218.6,262.2,227a59.7,59.7,0,0,0-7.44,12.4,87.37,87.37,0,0,0-1.55-20.31c5.24-4.12,24.56-20,26.68-31.89,2.46-13.76-1-37.35-1-37.35A121.44,121.44,0,0,1,272,164.06c-4.42,7.87-18.18,20.15-20.64,33.42a57.75,57.75,0,0,0-1,10.06,197.16,197.16,0,0,0-7.94-21.76,40.56,40.56,0,0,1-2-5.85h0l-.43-.26c.09-.15,8.94-15.09,8.94-19.38h1c0,4-6.75,15.9-8.62,19.11,3.09-1.87,8.13-5.67,10-11.59,2.82-8.8-1.35-16.71-1.35-16.71s-7.48,11-9.51,18a41.64,41.64,0,0,0-1.71,9.86A55,55,0,0,0,232.72,167c-4.42-5.89-7.37-14.74-7.37-14.74s-5.4,9.34-1.47,19.16c3.23,8.07,12.41,11.17,15.6,12,.35,1.07.74,2.12,1.17,3.12a168.12,168.12,0,0,1,10.06,30.24c-2.29-3.06-6.61-8.42-10.7-11.42-5.94-4.37-11.33-12-11.33-12s-2.46,10.51,4.15,18.77c5.4,6.75,15,7.09,18.36,7,2.27,11.9,2.53,24.32-1.32,36.33-.25-2.33-1.65-8.68-9.37-15.77-9.74-9-29.24-37.6-29.24-37.6s1.56,33.81,10.9,44.93c8.55,10.18,24.72,9.59,27.38,9.42-.18.53-.36,1.06-.56,1.58-6.15,16.53-7.45,28.12-7.6,34.26H229.77v53.55h31.94V292.31h-18.3a76.27,76.27,0,0,1,1.08-10.43l-.33.1-.27-1c.2-.05,20.21-5.69,34.2-20.08l.72.7c-11.3,11.61-26.43,17.59-32.24,19.58,5.78-.72,19.89-2.84,26.44-7.08,8.36-5.41,15.73-21.62,15.73-21.62S261.71,258.4,253.85,268.23Zm-15.2-87a25.08,25.08,0,0,1-12.82-17.16l1-.19a24,24,0,0,0,12.26,16.44Zm14.14,38.16-.22.34-.38-.15c-.56-.23-13.63-5.61-18.95-13.38l.83-.56c4.65,6.8,15.91,11.9,18.12,12.85,1.69-2.59,12.31-19.08,16-29.44l.95.34C265.1,200.7,252.92,219.19,252.79,219.37Zm-4.65,36.68c-.16-.06-15.74-5.93-22.67-19.38l.89-.46c6.76,13.11,22,18.84,22.13,18.9Z" transform="translate(-41.5 -48.37)"/><path id="_Trazado_de_recorte_7" data-name="&lt;Trazado de recorte&gt;" class="cls-5" d="M246.11,210.89s-28.51,6.05-52.27,19.44-42.33,24.19-42.33,29.37S142,347,142,347H358s-21.16-45.36-24.62-64.8-7.34-32-18.57-44.49S270.73,209.16,246.11,210.89Z" transform="translate(-41.5 -48.37)"/><g class="cls-7"><path class="cls-3" d="M162.37,290c3.2-2.29,9.6,15.07,11.43,11s-11.43-24.67-12.34-32,7.77-8.22,17.82-15.08,19.19-12.33,19.19-3.2,4.11,26.05,7.31,19.19,10.05-15.53,10.51-3.65,0,23.76,1.37,23.76,13.71-12.8,16.9-19.19-3.65-22.85-3.65-30.16,6.4-17.36,6.4-17.36l.4-10.34c-10.22,2.79-28.09,8.44-43.87,17.34-23.75,13.39-42.33,24.19-42.33,29.37S142,347,142,347h11.81C156,326.61,160.11,291.65,162.37,290Z" transform="translate(-41.5 -48.37)"/><path class="cls-8" d="M162.37,290c3.2-2.29,9.6,15.07,11.43,11s-11.43-24.67-12.34-32,7.77-8.22,17.82-15.08,19.19-12.33,19.19-3.2,4.11,26.05,7.31,19.19,10.05-15.53,10.51-3.65,0,23.76,1.37,23.76,13.71-12.8,16.9-19.19-3.65-22.85-3.65-30.16,6.4-17.36,6.4-17.36l.4-10.34c-10.22,2.79-28.09,8.44-43.87,17.34-23.75,13.39-42.33,24.19-42.33,29.37S142,347,142,347h11.81C156,326.61,160.11,291.65,162.37,290Z" transform="translate(-41.5 -48.37)"/><path class="cls-2" d="M300.05,231.05s15,7.34,20.67,14.67a44.4,44.4,0,0,0-19.67-18Z" transform="translate(-41.5 -48.37)"/></g><path id="_Trazado_de_recorte_8" data-name="&lt;Trazado de recorte&gt;" class="cls-9" d="M246.11,210.89s-28.51,6.05-52.27,19.44-42.33,24.19-42.33,29.37S142,347,142,347H358s-21.16-45.36-24.62-64.8-7.34-32-18.57-44.49S270.73,209.16,246.11,210.89Z" transform="translate(-41.5 -48.37)"/><path id="_Trazado_de_recorte_9" data-name="&lt;Trazado de recorte&gt;" class="cls-5" d="M236.61,213.91a28.44,28.44,0,0,0-13.39,22.46c-.87,15.56,0,31.54-.87,40.18s-6.91,15.55-2.16,15.12S235.74,274,239.63,274s5.19,8.2,6.91,10.8,7.8,3.67,7.8,3.67,5.6-6.7,5.6-8.86-1.73-9.5,3-8.64,15.12,17.28,15.55,12.1-4.75-13-4.75-25.49-6.05-27.21-14.69-36.28S245.46,213.24,236.61,213.91Z" transform="translate(-41.5 -48.37)"/><g class="cls-10"><path class="cls-3" d="M237.68,213.83l-1.07.08a28.44,28.44,0,0,0-13.39,22.46c-.87,15.56,0,31.54-.87,40.18-.55,5.55-3.25,10.39-3.84,13,3.17-2.33,13.21-13,16.05-18.72,3.2-6.4-3.65-22.85-3.65-30.16s6.4-17.36,6.4-17.36Z" transform="translate(-41.5 -48.37)"/><path class="cls-8" d="M237.68,213.83l-1.07.08a28.44,28.44,0,0,0-13.39,22.46c-.87,15.56,0,31.54-.87,40.18-.55,5.55-3.25,10.39-3.84,13,3.17-2.33,13.21-13,16.05-18.72,3.2-6.4-3.65-22.85-3.65-30.16s6.4-17.36,6.4-17.36Z" transform="translate(-41.5 -48.37)"/></g><path id="_Trazado_de_recorte_10" data-name="&lt;Trazado de recorte&gt;" class="cls-9" d="M236.61,213.91a28.44,28.44,0,0,0-13.39,22.46c-.87,15.56,0,31.54-.87,40.18s-6.91,15.55-2.16,15.12S235.74,274,239.63,274s5.19,8.2,6.91,10.8,7.8,3.67,7.8,3.67,5.6-6.7,5.6-8.86-1.73-9.5,3-8.64,15.12,17.28,15.55,12.1-4.75-13-4.75-25.49-6.05-27.21-14.69-36.28S245.46,213.24,236.61,213.91Z" transform="translate(-41.5 -48.37)"/><path id="_Trazado_de_recorte_11" data-name="&lt;Trazado de recorte&gt;" class="cls-5" d="M240.21,214A66.66,66.66,0,0,0,235,239c0,13.65,7.06,27.78,9.89,34.37s9.42,15.07,9.42,15.07-.47-17.42,3.77-25.9,8-14.6,8-14.6-5.18-5.18-12.71-17S240.21,214,240.21,214Z" transform="translate(-41.5 -48.37)"/><g class="cls-11"><path class="cls-3" d="M262.84,253.59l-1.78-11.65c-2.07-2.68-4.68-6.29-7.66-11C245.86,219.21,240.21,214,240.21,214A66.66,66.66,0,0,0,235,239a56.15,56.15,0,0,0,2.58,15.77l25-.81C262.7,253.83,262.77,253.71,262.84,253.59Z" transform="translate(-41.5 -48.37)"/><path class="cls-8" d="M262.84,253.59l-1.78-11.65c-2.07-2.68-4.68-6.29-7.66-11C245.86,219.21,240.21,214,240.21,214A66.66,66.66,0,0,0,235,239a56.15,56.15,0,0,0,2.58,15.77l25-.81C262.7,253.83,262.77,253.71,262.84,253.59Z" transform="translate(-41.5 -48.37)"/><path class="cls-2" d="M253.4,231C245.86,219.21,240.21,214,240.21,214A66.66,66.66,0,0,0,235,239a47.41,47.41,0,0,0,.81,8.39l21.07.66,5.16-4.81A146.7,146.7,0,0,1,253.4,231Z" transform="translate(-41.5 -48.37)"/></g><path id="_Trazado_de_recorte_12" data-name="&lt;Trazado de recorte&gt;" class="cls-9" d="M240.21,214A66.66,66.66,0,0,0,235,239c0,13.65,7.06,27.78,9.89,34.37s9.42,15.07,9.42,15.07-.47-17.42,3.77-25.9,8-14.6,8-14.6-5.18-5.18-12.71-17S240.21,214,240.21,214Z" transform="translate(-41.5 -48.37)"/><path class="cls-9" d="M208.53,244.15s9.5-22.89,25.06-28.51" transform="translate(-41.5 -48.37)"/><path class="cls-9" d="M167.49,263.16s13,21.16,14.69,39.31" transform="translate(-41.5 -48.37)"/><path class="cls-9" d="M183.48,282.6s4.32,27.21,4.32,41A116,116,0,0,0,190,347" transform="translate(-41.5 -48.37)"/><path class="cls-9" d="M187.36,317.59a136.69,136.69,0,0,0,3.46-32.4" transform="translate(-41.5 -48.37)"/><path class="cls-9" d="M305.72,283s1.3,15.55,4.32,34.56,4.76,28.51,4.76,28.51" transform="translate(-41.5 -48.37)"/><path class="cls-1" d="M235.26,319.88s-9.14,18.62-10.5,21.33-3.38,7.45-3.38,7.45h16.25s9.14-6.09,10.16-6.43,6.77,0,10.84-1.7,8.12-6.09,12.19-7.11,9.48-2.71,11.17-2.71,7.45,1.7,11.17,1.7,8.47-3.73,5.42-5.42-5.42-.68-9.48-2.71-5.42-2.71-9.48-2-7.45-1.69-17.27-3.73S241.36,315.81,235.26,319.88Z" transform="translate(-41.5 -48.37)"/><path class="cls-1" d="M263.62,309.47s5.33-4.54,9.72-2.35,2.34,16.29,3.44,21.93,2.35,8.62-.47,8.93-3.91-1.88-6.11-6.89S263.62,309.47,263.62,309.47Z" transform="translate(-41.5 -48.37)"/><path class="cls-1" d="M250.62,312.29S257.67,306,260.8,306s5.64,11.12,8,16,5.8,10.66,4.39,12.22-4.39,2.19-6.89-.47-8-14.41-9.56-16.29A47.5,47.5,0,0,0,250.62,312.29Z" transform="translate(-41.5 -48.37)"/><path class="cls-1" d="M243.42,314.49s.47-2.2,7.2-2.2,12.53,9.4,16.61,11.59,2.82,3.14-.16,4.55-4.86-.16-10.81-3.45S243.42,314.49,243.42,314.49Z" transform="translate(-41.5 -48.37)"/><path class="cls-1" d="M235.94,330l4.74-7.79a15,15,0,0,1,6.09,2.71c2.37,2,6.78,6.09,12.19,6.09s7.11-1.69,5.08-3.38-8.12-4.74-12.53-7.79-7.78-8.13-11.17-7.11-5.76,7.45-9.48,15.91" transform="translate(-41.5 -48.37)"/><path id="_Trazado_de_recorte_13" data-name="&lt;Trazado de recorte&gt;" class="cls-5" d="M311.71,180.84s-1.31,19.36-3.4,26.16-5,27.72-11.24,36.88-14.39,17-23.54,17.52S252.08,245.71,245,235.24s-7.85-20.92-10.2-31.12-2.88-22,.78-31.12,22-20.4,37.4-19.1,34.79,9.42,38.71,15.44A10.5,10.5,0,0,1,311.71,180.84Z" transform="translate(-41.5 -48.37)"/><g class="cls-12"><path class="cls-3" d="M235.6,173c-3.66,9.15-3.14,20.92-.78,31.12S238,224.78,245,235.24s19.35,26.68,28.51,26.16A21.16,21.16,0,0,0,284,257.6l-4.65.45c-9.6.92-14.16-5.48-20.1-17.81s-2.29-19.65-4.57-21.94-2.29-18.73-2.29-18.73,1.83-7.31,2.74-10,10.51-6.4,10.51-6.4,0,6.86,6.59,6.35,11.23-7.72,11.23-7.72l-.92-26.32A72.21,72.21,0,0,0,273,153.9C257.57,152.6,239.26,163.84,235.6,173Z" transform="translate(-41.5 -48.37)"/><path class="cls-8" d="M235.6,173c-3.66,9.15-3.14,20.92-.78,31.12S238,224.78,245,235.24s19.35,26.68,28.51,26.16A21.16,21.16,0,0,0,284,257.6l-4.65.45c-9.6.92-14.16-5.48-20.1-17.81s-2.29-19.65-4.57-21.94-2.29-18.73-2.29-18.73,1.83-7.31,2.74-10,10.51-6.4,10.51-6.4,0,6.86,6.59,6.35,11.23-7.72,11.23-7.72l-.92-26.32A72.21,72.21,0,0,0,273,153.9C257.57,152.6,239.26,163.84,235.6,173Z" transform="translate(-41.5 -48.37)"/></g><path id="_Trazado_de_recorte_14" data-name="&lt;Trazado de recorte&gt;" class="cls-9" d="M311.71,180.84s-1.31,19.36-3.4,26.16-5,27.72-11.24,36.88-14.39,17-23.54,17.52S252.08,245.71,245,235.24s-7.85-20.92-10.2-31.12-2.88-22,.78-31.12,22-20.4,37.4-19.1,34.79,9.42,38.71,15.44A10.5,10.5,0,0,1,311.71,180.84Z" transform="translate(-41.5 -48.37)"/><path class="cls-9" d="M285.3,206.74s.26,13.34,7.06,16.74c0,0,1.57.52.78,2.35s-6.8,2.88-11-.26" transform="translate(-41.5 -48.37)"/><path class="cls-6" d="M291.07,195.4a1.47,1.47,0,0,1-1.15-.54,1.49,1.49,0,0,1,.2-2.11c.24-.2,6-4.85,15.16-1.63a1.5,1.5,0,0,1-1,2.83c-7.58-2.66-12.21,1.07-12.26,1.11A1.5,1.5,0,0,1,291.07,195.4Z" transform="translate(-41.5 -48.37)"/><path class="cls-6" d="M275.31,193.58a1.5,1.5,0,0,1-1.3-.75c-.15-.27-3.75-6.19-10.83-5.21a1.52,1.52,0,0,1-1.7-1.28,1.5,1.5,0,0,1,1.28-1.69c9.12-1.26,13.66,6.35,13.85,6.67a1.5,1.5,0,0,1-.55,2.05A1.47,1.47,0,0,1,275.31,193.58Z" transform="translate(-41.5 -48.37)"/><line class="cls-9" x1="238.27" y1="191.56" x2="242.51" y2="191.56"/><path id="_Trazado_de_recorte_15" data-name="&lt;Trazado de recorte&gt;" class="cls-6" d="M241.36,142.66s-17,5.49-18.31,12.29,7.32,30.6,7.06,33.48-2.88,5.23,0,9.41,8.11,10.47,10.2,7.07-.78-8.37,2.62-10.47,8.1-5.49,5.49-9.93-1.31-11,4.18-11.77,10.2-4.45,7.33-.27-11.25,14.39-6.8,15.17,22-11,22-11-6,12-2.88,12.81S299.94,174,299.94,174s11.77,15.43,14.13,14.39.78-9.68.78-9.68,1.83,11.51,5.49,12,8.63-5.75,7.06-9.67-4.18-9.42-4.18-9.42,5.23-1.31,7.32-3.66,1.83-2.62-2.61-3.4-7.85-5.76-12-10.2-11-10.46-11-10.46,7.85,3.4,3.66-.53-26.41-12.81-38.44-12.81-16.48,6.27-16.48,6.27,2.09-7.84-.26-6.8-5,7.33-5,7.33-5.49-1.57-8.37.26-3.66,3.66-1.31,3.66a13.66,13.66,0,0,1,3.92.52Z" transform="translate(-41.5 -48.37)"/><g class="cls-13"><g class="cls-14"><path class="cls-5" d="M240.31,204.91c2.09-3.4-.78-8.37,2.62-10.47s8.1-5.49,5.49-9.93-1.31-11,4.18-11.77c4.14-.59,7.83-2.81,8.17-2.09,1.78-2.44,2.53-4.3,0-3.54-4.86,1.45-19.92,3.88-18.46,8.74s2.43,7.29-1.46,8.75-3.89,4.86-3.89,8.74c0,3.33-1.57,8.84-2,10.36C237.07,205.72,239.16,206.77,240.31,204.91Z" transform="translate(-41.5 -48.37)"/><path class="cls-5" d="M314.85,178.75l.35,4.87.16.77a35.64,35.64,0,0,0-.46-5.37c.3,1.74,2.11,11.29,5.44,11.76,3.66.53,8.63-5.75,7.06-9.67-.33-.85-.72-1.77-1.12-2.69-1.21,1.9-2.87,3.75-4.77,3.75C317.63,182.17,314.85,178.75,314.85,178.75Z" transform="translate(-41.5 -48.37)"/><path class="cls-5" d="M309.68,185.49c-3.22-7.24-6.75-16.62-8.57-19.36-2.92-4.37-13.12,11.66-21.87,17-3.56,2.18-6.14,3.13-7.77,3.15-.31,1.66-.21,3,.75,3.18,3.14.79,27.72-15.43,27.72-15.43A142.79,142.79,0,0,0,309.68,185.49Z" transform="translate(-41.5 -48.37)"/><path class="cls-5" d="M252.09,184.81c-.47,1.51-.3,2.6,1,2.83,3.35.6,14.15-6,19.25-9.21,2.89-3.56,6.47-5.75,6.86-8.9.49-3.88-18,11.67-24.29,14.58A5.19,5.19,0,0,1,252.09,184.81Z" transform="translate(-41.5 -48.37)"/></g></g><path id="_Trazado_de_recorte_16" data-name="&lt;Trazado de recorte&gt;" class="cls-9" d="M241.36,142.66s-17,5.49-18.31,12.29,7.32,30.6,7.06,33.48-2.88,5.23,0,9.41,8.11,10.47,10.2,7.07-.78-8.37,2.62-10.47,8.1-5.49,5.49-9.93-1.31-11,4.18-11.77,10.2-4.45,7.33-.27-11.25,14.39-6.8,15.17,22-11,22-11-6,12-2.88,12.81S299.94,174,299.94,174s11.77,15.43,14.13,14.39.78-9.68.78-9.68,1.83,11.51,5.49,12,8.63-5.75,7.06-9.67-4.18-9.42-4.18-9.42,5.23-1.31,7.32-3.66,1.83-2.62-2.61-3.4-7.85-5.76-12-10.2-11-10.46-11-10.46,7.85,3.4,3.66-.53-26.41-12.81-38.44-12.81-16.48,6.27-16.48,6.27,2.09-7.84-.26-6.8-5,7.33-5,7.33-5.49-1.57-8.37.26-3.66,3.66-1.31,3.66a13.66,13.66,0,0,1,3.92.52Z" transform="translate(-41.5 -48.37)"/><path class="cls-6" d="M280,196.41s-3.82-4.12-14.1-3.82-17.62,2-19.68,3.23-.88,2.64-.29,4.7,2.05,11.75,4.4,15.57,8.52,7,12.63,7,6.47-.88,10.87-4.12,7.35-15,7.64-15.86,0-2.64,2.94-1.76,3.23,13.81,4.11,16.45S295.29,224,300,224s9.1-2.35,12.92-9.11a21.42,21.42,0,0,0,2.64-13.22s4.12-3.23.89-4.4S302.09,193,295,195.23C286.47,197.88,282.07,197.29,280,196.41Z" transform="translate(-41.5 -48.37)"/><path class="cls-6" d="M247.7,196.11,228,198.76v2.35l19.39-1.18S245.64,197,247.7,196.11Z" transform="translate(-41.5 -48.37)"/><path class="cls-3" d="M300,221.15c-5.77,0-8.71-3.05-9.35-8.37-.76-6.35-1.45-10.79-3.45-12.91a46.65,46.65,0,0,0,8.66-1.9,17.33,17.33,0,0,1,5.08-.65,48.54,48.54,0,0,1,12.87,2.12l-1.35,1.08.29,1.69a18.79,18.79,0,0,1-2.31,11.29C306.54,220.36,302.61,221.15,300,221.15Zm-37-.88c-3,0-8.3-2.62-10.19-5.68-1.5-2.45-2.76-8.62-3.44-11.94-.28-1.34-.47-2.31-.65-2.92s-.3-.95-.46-1.38c0-.08-.06-.17-.1-.26,2.32-.94,8.85-2.38,17.86-2.64h1c7.9,0,10.93,2.89,11,2.92l.41.44.56.24a10.08,10.08,0,0,0,1.17.42,5.05,5.05,0,0,0-1.27,2.67l0,.19s-.09.29-.19.64c-2.92,10.32-5.45,13.06-6.4,13.75C268,219.76,266.22,220.27,263,220.27Z" transform="translate(-41.5 -48.37)"/><path class="cls-6" d="M256.05,200.23h-1.5a.36.36,0,0,1-.37-.37.37.37,0,0,1,.37-.37h1.5a.37.37,0,0,1,.37.37A.36.36,0,0,1,256.05,200.23Zm.37,1.35a.37.37,0,0,0-.37-.37h-1.5a.37.37,0,0,0-.37.37.36.36,0,0,0,.37.37h1.5A.36.36,0,0,0,256.42,201.58Zm0,1.72a.37.37,0,0,0-.37-.37h-1.5a.38.38,0,0,0,0,.75h1.5A.37.37,0,0,0,256.42,203.3Zm0,1.73a.37.37,0,0,0-.37-.38h-1.5a.38.38,0,0,0,0,.75h1.5A.37.37,0,0,0,256.42,205Zm0,1.72a.37.37,0,0,0-.37-.38h-1.5a.38.38,0,0,0,0,.75h1.5A.37.37,0,0,0,256.42,206.75Zm0,1.72a.36.36,0,0,0-.37-.37h-1.5a.36.36,0,0,0-.37.37.37.37,0,0,0,.37.37h1.5A.37.37,0,0,0,256.42,208.47Zm0,1.72a.36.36,0,0,0-.37-.37h-1.5a.36.36,0,0,0-.37.37.37.37,0,0,0,.37.37h1.5A.37.37,0,0,0,256.42,210.19Zm0,1.72a.36.36,0,0,0-.37-.37h-1.5a.36.36,0,0,0-.37.37.37.37,0,0,0,.37.37h1.5A.37.37,0,0,0,256.42,211.91Zm5.64-12a.38.38,0,0,0-.37-.37h-4a.38.38,0,0,0-.37.37.37.37,0,0,0,.37.37h4A.37.37,0,0,0,262.06,199.86Zm0,1.72a.38.38,0,0,0-.37-.37h-4a.38.38,0,0,0-.37.37.37.37,0,0,0,.37.37h4A.37.37,0,0,0,262.06,201.58Zm0,1.72a.38.38,0,0,0-.37-.37h-4a.38.38,0,0,0,0,.75h4A.38.38,0,0,0,262.06,203.3Zm0,1.73a.38.38,0,0,0-.37-.38h-4a.38.38,0,0,0,0,.75h4A.38.38,0,0,0,262.06,205Zm0,1.72a.38.38,0,0,0-.37-.38h-4a.38.38,0,0,0,0,.75h4A.38.38,0,0,0,262.06,206.75Zm4.73,1.72a.37.37,0,0,0-.37-.37h-3.95a.37.37,0,0,0-.38.37.38.38,0,0,0,.38.37h3.95A.38.38,0,0,0,266.79,208.47Zm0,1.72a.37.37,0,0,0-.37-.37h-3.95a.37.37,0,0,0-.38.37.38.38,0,0,0,.38.37h3.95A.38.38,0,0,0,266.79,210.19Zm0,1.72a.37.37,0,0,0-.37-.37h-3.95a.37.37,0,0,0-.38.37.38.38,0,0,0,.38.37h3.95A.38.38,0,0,0,266.79,211.91Zm-3-12a.44.44,0,0,0-.43-.43.43.43,0,0,0-.43.43.43.43,0,0,0,.43.43A.43.43,0,0,0,263.8,199.86Zm1.29,0a.44.44,0,0,0-.43-.43.43.43,0,0,0-.43.43.43.43,0,0,0,.43.43A.43.43,0,0,0,265.09,199.86Zm1.29,0a.43.43,0,1,0-.86,0,.43.43,0,1,0,.86,0Zm1.29,0a.43.43,0,0,0-.86,0,.43.43,0,1,0,.86,0Zm1.29,0a.43.43,0,0,0-.86,0,.43.43,0,0,0,.86,0Zm1.29,0a.43.43,0,1,0-.86,0,.43.43,0,1,0,.86,0Zm-6.45,3.44a.44.44,0,0,0-.43-.43.43.43,0,0,0-.43.43.43.43,0,0,0,.43.43A.43.43,0,0,0,263.8,203.3Zm1.29,0a.44.44,0,0,0-.43-.43.43.43,0,0,0-.43.43.43.43,0,0,0,.43.43A.43.43,0,0,0,265.09,203.3Zm1.29,0a.43.43,0,0,0-.86,0,.43.43,0,1,0,.86,0Zm1.29,0a.43.43,0,0,0-.86,0,.43.43,0,1,0,.86,0Zm1.29,0a.43.43,0,0,0-.86,0,.43.43,0,0,0,.86,0Zm1.29,0a.43.43,0,0,0-.86,0,.43.43,0,1,0,.86,0Zm-2,4.95a.43.43,0,0,0-.43-.43.43.43,0,1,0,0,.86A.43.43,0,0,0,268.21,208.25Zm1.29,0a.43.43,0,0,0-.43-.43.43.43,0,0,0,0,.86A.43.43,0,0,0,269.5,208.25Zm1.29,0a.43.43,0,1,0-.43.43A.43.43,0,0,0,270.79,208.25Zm1.29,0a.43.43,0,1,0-.43.43A.43.43,0,0,0,272.08,208.25Zm1.29,0a.43.43,0,1,0-.43.43A.43.43,0,0,0,273.37,208.25Zm1.29,0a.43.43,0,1,0-.43.43A.43.43,0,0,0,274.66,208.25Zm-6.45,3.55a.43.43,0,0,0-.43-.43.43.43,0,1,0,0,.86A.43.43,0,0,0,268.21,211.8Zm1.29,0a.43.43,0,0,0-.43-.43.43.43,0,0,0,0,.86A.43.43,0,0,0,269.5,211.8Zm1.29,0a.43.43,0,1,0-.43.43A.43.43,0,0,0,270.79,211.8Zm1.29,0a.43.43,0,1,0-.43.43A.43.43,0,0,0,272.08,211.8Zm1.29,0a.43.43,0,1,0-.43.43A.43.43,0,0,0,273.37,211.8Zm1.29,0a.43.43,0,1,0-.43.43A.43.43,0,0,0,274.66,211.8Z" transform="translate(-41.5 -48.37)"/><path class="cls-6" d="M292.83,200.23h-1.5a.36.36,0,0,1-.37-.37.37.37,0,0,1,.37-.37h1.5a.38.38,0,0,1,.38.37A.37.37,0,0,1,292.83,200.23Zm.38,1.35a.38.38,0,0,0-.38-.37h-1.5a.37.37,0,0,0-.37.37.36.36,0,0,0,.37.37h1.5A.37.37,0,0,0,293.21,201.58Zm0,1.72a.38.38,0,0,0-.38-.37h-1.5a.38.38,0,0,0,0,.75h1.5A.38.38,0,0,0,293.21,203.3Zm0,1.73a.38.38,0,0,0-.38-.38h-1.5a.38.38,0,0,0,0,.75h1.5A.38.38,0,0,0,293.21,205Zm0,1.72a.38.38,0,0,0-.38-.38h-1.5a.38.38,0,0,0,0,.75h1.5A.38.38,0,0,0,293.21,206.75Zm0,1.72a.37.37,0,0,0-.38-.37h-1.5a.36.36,0,0,0-.37.37.37.37,0,0,0,.37.37h1.5A.38.38,0,0,0,293.21,208.47Zm0,1.72a.37.37,0,0,0-.38-.37h-1.5a.36.36,0,0,0-.37.37.37.37,0,0,0,.37.37h1.5A.38.38,0,0,0,293.21,210.19Zm0,1.72a.37.37,0,0,0-.38-.37h-1.5a.36.36,0,0,0-.37.37.37.37,0,0,0,.37.37h1.5A.38.38,0,0,0,293.21,211.91Zm5.63-12a.38.38,0,0,0-.37-.37h-4a.38.38,0,0,0-.38.37.37.37,0,0,0,.38.37h4A.37.37,0,0,0,298.84,199.86Zm0,1.72a.38.38,0,0,0-.37-.37h-4a.38.38,0,0,0-.38.37.37.37,0,0,0,.38.37h4A.37.37,0,0,0,298.84,201.58Zm0,1.72a.38.38,0,0,0-.37-.37h-4a.38.38,0,1,0,0,.75h4A.38.38,0,0,0,298.84,203.3Zm0,1.73a.38.38,0,0,0-.37-.38h-4a.38.38,0,1,0,0,.75h4A.38.38,0,0,0,298.84,205Zm0,1.72a.38.38,0,0,0-.37-.38h-4a.38.38,0,1,0,0,.75h4A.38.38,0,0,0,298.84,206.75Zm4.73,1.72a.36.36,0,0,0-.37-.37h-3.95a.36.36,0,0,0-.37.37.37.37,0,0,0,.37.37h3.95A.37.37,0,0,0,303.57,208.47Zm0,1.72a.36.36,0,0,0-.37-.37h-3.95a.36.36,0,0,0-.37.37.37.37,0,0,0,.37.37h3.95A.37.37,0,0,0,303.57,210.19Zm0,1.72a.36.36,0,0,0-.37-.37h-3.95a.36.36,0,0,0-.37.37.37.37,0,0,0,.37.37h3.95A.37.37,0,0,0,303.57,211.91Zm-3-12a.43.43,0,0,0-.86,0,.43.43,0,0,0,.86,0Zm1.29,0a.43.43,0,1,0-.86,0,.43.43,0,1,0,.86,0Zm1.29,0a.43.43,0,0,0-.86,0,.43.43,0,1,0,.86,0Zm1.29,0a.43.43,0,0,0-.86,0,.43.43,0,1,0,.86,0Zm1.29,0a.43.43,0,1,0-.86,0,.43.43,0,1,0,.86,0Zm1.29,0a.43.43,0,1,0-.86,0,.43.43,0,1,0,.86,0Zm-6.45,3.44a.43.43,0,0,0-.86,0,.43.43,0,0,0,.86,0Zm1.29,0a.43.43,0,0,0-.86,0,.43.43,0,1,0,.86,0Zm1.29,0a.43.43,0,0,0-.86,0,.43.43,0,1,0,.86,0Zm1.29,0a.43.43,0,0,0-.86,0,.43.43,0,1,0,.86,0Zm1.29,0a.43.43,0,0,0-.86,0,.43.43,0,1,0,.86,0Zm1.29,0a.43.43,0,1,0-.86,0,.43.43,0,1,0,.86,0Zm-2,4.95a.43.43,0,1,0-.43.43A.43.43,0,0,0,305,208.25Zm1.29,0a.43.43,0,1,0-.43.43A.43.43,0,0,0,306.28,208.25Zm1.29,0a.43.43,0,1,0-.43.43A.43.43,0,0,0,307.57,208.25Zm1.29,0a.43.43,0,1,0-.43.43A.43.43,0,0,0,308.86,208.25Zm1.29,0a.43.43,0,1,0-.43.43A.43.43,0,0,0,310.15,208.25Zm1.29,0a.43.43,0,1,0-.43.43A.43.43,0,0,0,311.44,208.25ZM305,211.8a.43.43,0,1,0-.43.43A.43.43,0,0,0,305,211.8Zm1.29,0a.43.43,0,1,0-.43.43A.43.43,0,0,0,306.28,211.8Zm1.29,0a.43.43,0,1,0-.43.43A.43.43,0,0,0,307.57,211.8Zm1.29,0a.43.43,0,1,0-.43.43A.43.43,0,0,0,308.86,211.8Zm1.29,0a.43.43,0,1,0-.43.43A.43.43,0,0,0,310.15,211.8Zm1.29,0a.43.43,0,1,0-.43.43A.43.43,0,0,0,311.44,211.8Z" transform="translate(-41.5 -48.37)"/><path id="_Trazado_de_recorte_17" data-name="&lt;Trazado de recorte&gt;" class="cls-5" d="M241.36,210.4s-6.28-14.65-11.77-14.65-5.23,12.29-1.83,18.83,10.72,9.16,12.81,5.23" transform="translate(-41.5 -48.37)"/><g class="cls-15"><path class="cls-3" d="M241.36,210.4s-6.28-14.65-11.77-14.65-5.23,12.29-1.83,18.83,10.72,9.16,12.81,5.23" transform="translate(-41.5 -48.37)"/><path class="cls-8" d="M241.36,210.4s-6.28-14.65-11.77-14.65-5.23,12.29-1.83,18.83,10.72,9.16,12.81,5.23" transform="translate(-41.5 -48.37)"/></g><path id="_Trazado_de_recorte_18" data-name="&lt;Trazado de recorte&gt;" class="cls-9" d="M241.36,210.4s-6.28-14.65-11.77-14.65-5.23,12.29-1.83,18.83,10.72,9.16,12.81,5.23" transform="translate(-41.5 -48.37)"/><path class="cls-9" d="M227.76,204.73s-.79-6.37,2.23-5.26,6.53,11.15,6.53,11.15-2.55-2.71-2.23-.16a2.9,2.9,0,0,0,2.55,2.71" transform="translate(-41.5 -48.37)"/><polygon class="cls-2" points="311.49 207.44 187.51 207.44 166.34 292.54 290.32 292.54 311.49 207.44"/><rect class="cls-2" x="104.14" y="292.54" width="184.88" height="6.05"/><rect class="cls-16" x="166.35" y="292.54" width="123.98" height="6.05"/><polygon class="cls-16" points="312.86 207.44 188.88 207.44 167.72 292.54 291.69 292.54 312.86 207.44"/><ellipse class="cls-6" cx="239.58" cy="251.61" rx="17.68" ry="17.51"/><path class="cls-5" d="M266.71,302.68a1.53,1.53,0,0,1-.8-.87,1.75,1.75,0,0,1,0-1.29,1.81,1.81,0,0,1,1-1l7.5-3q.38-.15.78.33a1.67,1.67,0,0,1,.43,1,.93.93,0,0,1-.51.86l-6.27,2.44,6.29,2.53a.93.93,0,0,1,.4.82,1.81,1.81,0,0,1-.37,1c-.23.33-.48.44-.72.33Z" transform="translate(-41.5 -48.37)"/><path class="cls-5" d="M278.4,306.87a.84.84,0,0,1-.32-.68,5.09,5.09,0,0,1,.25-1.07l4.15-12q.39-1.35,1.11-1.35a1.08,1.08,0,0,1,.72.26,1,1,0,0,1,.29.75,3.36,3.36,0,0,1-.22,1L280,306.44a.88.88,0,0,1-.91.68A1.1,1.1,0,0,1,278.4,306.87Z" transform="translate(-41.5 -48.37)"/><path class="cls-5" d="M286.57,305.57a1.73,1.73,0,0,1-.36-1,1,1,0,0,1,.39-.82l6.3-2.53-6.28-2.44a.91.91,0,0,1-.5-.86,1.62,1.62,0,0,1,.43-1q.4-.48.78-.33l7.49,3a2,2,0,0,1,.89.72,1.65,1.65,0,0,1,.28.94,1.86,1.86,0,0,1-.25.89,1.44,1.44,0,0,1-.66.61l-7.78,3.22C287.05,306,286.81,305.9,286.57,305.57Z" transform="translate(-41.5 -48.37)"/><rect class="cls-1" x="7.83" y="297.25" width="401.33" height="6"/></g></svg>